<?xml version="1.0" encoding="UTF-8" standalone="no"?>
<!-- Created with Inkscape (http://www.inkscape.org/) -->

<svg
   xmlns:dc="http://purl.org/dc/elements/1.1/"
   xmlns:cc="http://creativecommons.org/ns#"
   xmlns:rdf="http://www.w3.org/1999/02/22-rdf-syntax-ns#"
   xmlns:svg="http://www.w3.org/2000/svg"
   xmlns="http://www.w3.org/2000/svg"
   xmlns:sodipodi="http://sodipodi.sourceforge.net/DTD/sodipodi-0.dtd"
   xmlns:inkscape="http://www.inkscape.org/namespaces/inkscape"
   id="svg8"
   version="1.1"
   viewBox="0 0 210 297"
   height="297mm"
   width="210mm"
   inkscape:version="0.92.4 (5da689c313, 2019-01-14)"
   sodipodi:docname="New Living hinges for laser cutting.svg">
  <defs
     id="defs2" />
  <sodipodi:namedview
     id="base"
     pagecolor="#ffffff"
     bordercolor="#666666"
     borderopacity="1.0"
     inkscape:pageopacity="0.0"
     inkscape:pageshadow="2"
     inkscape:zoom="1.4"
     inkscape:cx="369.12698"
     inkscape:cy="572.38505"
     inkscape:document-units="mm"
     inkscape:current-layer="layer1"
     showgrid="false"
     inkscape:window-width="3840"
     inkscape:window-height="2066"
     inkscape:window-x="5749"
     inkscape:window-y="-11"
     inkscape:window-maximized="1" />
  <metadata
     id="metadata5">
    <rdf:RDF>
      <cc:Work
         rdf:about="">
        <dc:format>image/svg+xml</dc:format>
        <dc:type
           rdf:resource="http://purl.org/dc/dcmitype/StillImage" />
        <dc:title></dc:title>
      </cc:Work>
    </rdf:RDF>
  </metadata>
  <g
     inkscape:label="Layer 1"
     inkscape:groupmode="layer"
     id="layer1">
    <rect
       style="fill:none;stroke:#000000;stroke-width:0.1;stroke-miterlimit:4;stroke-dasharray:none;stroke-opacity:0.97374704"
       id="rect829"
       width="90"
       height="26"
       x="19.087797"
       y="17.675587" />
    <path
       id="path838"
       style="stroke:#000000;stroke-width:0.1;fill:none"
       d="M 19.087797, 17.675587 L 19.087797, 29.175587 M 19.087797, 32.175587 L 19.087797, 43.675587 M 22.087797, 17.675587 L 22.087797, 29.175587 M 22.087797, 32.175587 L 22.087797, 43.675587 M 25.087797, 17.675587 L 25.087797, 29.175587 M 25.087797, 32.175587 L 25.087797, 43.675587 M 28.087797, 17.675587 L 28.087797, 29.175587 M 28.087797, 32.175587 L 28.087797, 43.675587 M 31.087797, 17.675587 L 31.087797, 29.175587 M 31.087797, 32.175587 L 31.087797, 43.675587 M 34.087797, 17.675587 L 34.087797, 29.175587 M 34.087797, 32.175587 L 34.087797, 43.675587 M 37.087797, 17.675587 L 37.087797, 29.175587 M 37.087797, 32.175587 L 37.087797, 43.675587 M 40.087797, 17.675587 L 40.087797, 29.175587 M 40.087797, 32.175587 L 40.087797, 43.675587 M 43.087797, 17.675587 L 43.087797, 29.175587 M 43.087797, 32.175587 L 43.087797, 43.675587 M 46.087797, 17.675587 L 46.087797, 29.175587 M 46.087797, 32.175587 L 46.087797, 43.675587 M 49.087797, 17.675587 L 49.087797, 29.175587 M 49.087797, 32.175587 L 49.087797, 43.675587 M 52.087797, 17.675587 L 52.087797, 29.175587 M 52.087797, 32.175587 L 52.087797, 43.675587 M 55.087797, 17.675587 L 55.087797, 29.175587 M 55.087797, 32.175587 L 55.087797, 43.675587 M 58.087797, 17.675587 L 58.087797, 29.175587 M 58.087797, 32.175587 L 58.087797, 43.675587 M 61.087797, 17.675587 L 61.087797, 29.175587 M 61.087797, 32.175587 L 61.087797, 43.675587 M 64.087797, 17.675587 L 64.087797, 29.175587 M 64.087797, 32.175587 L 64.087797, 43.675587 M 67.087797, 17.675587 L 67.087797, 29.175587 M 67.087797, 32.175587 L 67.087797, 43.675587 M 70.087797, 17.675587 L 70.087797, 29.175587 M 70.087797, 32.175587 L 70.087797, 43.675587 M 73.087797, 17.675587 L 73.087797, 29.175587 M 73.087797, 32.175587 L 73.087797, 43.675587 M 76.087797, 17.675587 L 76.087797, 29.175587 M 76.087797, 32.175587 L 76.087797, 43.675587 M 79.087797, 17.675587 L 79.087797, 29.175587 M 79.087797, 32.175587 L 79.087797, 43.675587 M 82.087797, 17.675587 L 82.087797, 29.175587 M 82.087797, 32.175587 L 82.087797, 43.675587 M 85.087797, 17.675587 L 85.087797, 29.175587 M 85.087797, 32.175587 L 85.087797, 43.675587 M 88.087797, 17.675587 L 88.087797, 29.175587 M 88.087797, 32.175587 L 88.087797, 43.675587 M 91.087797, 17.675587 L 91.087797, 29.175587 M 91.087797, 32.175587 L 91.087797, 43.675587 M 94.087797, 17.675587 L 94.087797, 29.175587 M 94.087797, 32.175587 L 94.087797, 43.675587 M 97.087797, 17.675587 L 97.087797, 29.175587 M 97.087797, 32.175587 L 97.087797, 43.675587 M 100.087797, 17.675587 L 100.087797, 29.175587 M 100.087797, 32.175587 L 100.087797, 43.675587 M 103.087797, 17.675587 L 103.087797, 29.175587 M 103.087797, 32.175587 L 103.087797, 43.675587 M 106.087797, 17.675587 L 106.087797, 29.175587 M 106.087797, 32.175587 L 106.087797, 43.675587 M 109.087797, 17.675587 L 109.087797, 29.175587 M 109.087797, 32.175587 L 109.087797, 43.675587 M 20.587797, 20.675587 L 20.587797, 40.675587 M 23.587797, 20.675587 L 23.587797, 40.675587 M 26.587797, 20.675587 L 26.587797, 40.675587 M 29.587797, 20.675587 L 29.587797, 40.675587 M 32.587797, 20.675587 L 32.587797, 40.675587 M 35.587797, 20.675587 L 35.587797, 40.675587 M 38.587797, 20.675587 L 38.587797, 40.675587 M 41.587797, 20.675587 L 41.587797, 40.675587 M 44.587797, 20.675587 L 44.587797, 40.675587 M 47.587797, 20.675587 L 47.587797, 40.675587 M 50.587797, 20.675587 L 50.587797, 40.675587 M 53.587797, 20.675587 L 53.587797, 40.675587 M 56.587797, 20.675587 L 56.587797, 40.675587 M 59.587797, 20.675587 L 59.587797, 40.675587 M 62.587797, 20.675587 L 62.587797, 40.675587 M 65.587797, 20.675587 L 65.587797, 40.675587 M 68.587797, 20.675587 L 68.587797, 40.675587 M 71.587797, 20.675587 L 71.587797, 40.675587 M 74.587797, 20.675587 L 74.587797, 40.675587 M 77.587797, 20.675587 L 77.587797, 40.675587 M 80.587797, 20.675587 L 80.587797, 40.675587 M 83.587797, 20.675587 L 83.587797, 40.675587 M 86.587797, 20.675587 L 86.587797, 40.675587 M 89.587797, 20.675587 L 89.587797, 40.675587 M 92.587797, 20.675587 L 92.587797, 40.675587 M 95.587797, 20.675587 L 95.587797, 40.675587 M 98.587797, 20.675587 L 98.587797, 40.675587 M 101.587797, 20.675587 L 101.587797, 40.675587 M 104.587797, 20.675587 L 104.587797, 40.675587 M 107.587797, 20.675587 L 107.587797, 40.675587 ">
      <desc
         id="desc836">Hinge cut parameters: actual(requested)
cut length: 20.00 mm (30.00 mm)
gap length: 3.00 mm (3.00 mm)
separation distance: 1.50 mm (1.50 mm)</desc>
    </path>
    <rect
       style="fill:none;stroke:#000000;stroke-width:0.1;stroke-miterlimit:4;stroke-dasharray:none;stroke-opacity:0.97374704"
       id="rect844"
       width="40"
       height="26"
       x="18.520834"
       y="60.953861" />
    <path
       id="path855"
       style="stroke:#000000;stroke-width:0.1;fill:none"
       d="M 18.520834, 60.953861 L 18.520834, 72.453861 M 18.520834, 75.453861 L 18.520834, 86.953861 M 21.3779768571, 60.953861 L 21.3779768571, 72.453861 M 21.3779768571, 75.453861 L 21.3779768571, 86.953861 M 24.2351197143, 60.953861 L 24.2351197143, 72.453861 M 24.2351197143, 75.453861 L 24.2351197143, 86.953861 M 27.0922625714, 60.953861 L 27.0922625714, 72.453861 M 27.0922625714, 75.453861 L 27.0922625714, 86.953861 M 29.9494054286, 60.953861 L 29.9494054286, 72.453861 M 29.9494054286, 75.453861 L 29.9494054286, 86.953861 M 32.8065482857, 60.953861 L 32.8065482857, 72.453861 M 32.8065482857, 75.453861 L 32.8065482857, 86.953861 M 35.6636911429, 60.953861 L 35.6636911429, 72.453861 M 35.6636911429, 75.453861 L 35.6636911429, 86.953861 M 38.520834, 60.953861 L 38.520834, 72.453861 M 38.520834, 75.453861 L 38.520834, 86.953861 M 41.3779768571, 60.953861 L 41.3779768571, 72.453861 M 41.3779768571, 75.453861 L 41.3779768571, 86.953861 M 44.2351197143, 60.953861 L 44.2351197143, 72.453861 M 44.2351197143, 75.453861 L 44.2351197143, 86.953861 M 47.0922625714, 60.953861 L 47.0922625714, 72.453861 M 47.0922625714, 75.453861 L 47.0922625714, 86.953861 M 49.9494054286, 60.953861 L 49.9494054286, 72.453861 M 49.9494054286, 75.453861 L 49.9494054286, 86.953861 M 52.8065482857, 60.953861 L 52.8065482857, 72.453861 M 52.8065482857, 75.453861 L 52.8065482857, 86.953861 M 55.6636911429, 60.953861 L 55.6636911429, 72.453861 M 55.6636911429, 75.453861 L 55.6636911429, 86.953861 M 58.520834, 60.953861 L 58.520834, 72.453861 M 58.520834, 75.453861 L 58.520834, 86.953861 M 19.9494054286, 63.953861 L 19.9494054286, 83.953861 M 22.8065482857, 63.953861 L 22.8065482857, 83.953861 M 25.6636911429, 63.953861 L 25.6636911429, 83.953861 M 28.520834, 63.953861 L 28.520834, 83.953861 M 31.3779768571, 63.953861 L 31.3779768571, 83.953861 M 34.2351197143, 63.953861 L 34.2351197143, 83.953861 M 37.0922625714, 63.953861 L 37.0922625714, 83.953861 M 39.9494054286, 63.953861 L 39.9494054286, 83.953861 M 42.8065482857, 63.953861 L 42.8065482857, 83.953861 M 45.6636911429, 63.953861 L 45.6636911429, 83.953861 M 48.520834, 63.953861 L 48.520834, 83.953861 M 51.3779768571, 63.953861 L 51.3779768571, 83.953861 M 54.2351197143, 63.953861 L 54.2351197143, 83.953861 M 57.0922625714, 63.953861 L 57.0922625714, 83.953861 ">
      <desc
         id="desc853">Hinge cut parameters: actual(requested)
cut length: 20.00 mm (30.00 mm)
gap length: 3.00 mm (3.00 mm)
separation distance: 1.43 mm (1.50 mm)</desc>
    </path>
    <rect
       style="fill:none;stroke:#000000;stroke-width:0.1;stroke-miterlimit:4;stroke-dasharray:none;stroke-opacity:0.97374704"
       id="rect861"
       width="52"
       height="80"
       x="20.788691"
       y="110.65773" />
    <path
       id="path875"
       style="stroke:#000000;stroke-width:0.1;fill:none"
       d="M 20.788691, 110.65773 L 20.788691, 129.90773 M 20.788691, 132.90773 L 20.788691, 168.40773 M 20.788691, 171.40773 L 20.788691, 190.65773 M 23.6775798889, 110.65773 L 23.6775798889, 129.90773 M 23.6775798889, 132.90773 L 23.6775798889, 168.40773 M 23.6775798889, 171.40773 L 23.6775798889, 190.65773 M 26.5664687778, 110.65773 L 26.5664687778, 129.90773 M 26.5664687778, 132.90773 L 26.5664687778, 168.40773 M 26.5664687778, 171.40773 L 26.5664687778, 190.65773 M 29.4553576667, 110.65773 L 29.4553576667, 129.90773 M 29.4553576667, 132.90773 L 29.4553576667, 168.40773 M 29.4553576667, 171.40773 L 29.4553576667, 190.65773 M 32.3442465556, 110.65773 L 32.3442465556, 129.90773 M 32.3442465556, 132.90773 L 32.3442465556, 168.40773 M 32.3442465556, 171.40773 L 32.3442465556, 190.65773 M 35.2331354444, 110.65773 L 35.2331354444, 129.90773 M 35.2331354444, 132.90773 L 35.2331354444, 168.40773 M 35.2331354444, 171.40773 L 35.2331354444, 190.65773 M 38.1220243333, 110.65773 L 38.1220243333, 129.90773 M 38.1220243333, 132.90773 L 38.1220243333, 168.40773 M 38.1220243333, 171.40773 L 38.1220243333, 190.65773 M 41.0109132222, 110.65773 L 41.0109132222, 129.90773 M 41.0109132222, 132.90773 L 41.0109132222, 168.40773 M 41.0109132222, 171.40773 L 41.0109132222, 190.65773 M 43.8998021111, 110.65773 L 43.8998021111, 129.90773 M 43.8998021111, 132.90773 L 43.8998021111, 168.40773 M 43.8998021111, 171.40773 L 43.8998021111, 190.65773 M 46.788691, 110.65773 L 46.788691, 129.90773 M 46.788691, 132.90773 L 46.788691, 168.40773 M 46.788691, 171.40773 L 46.788691, 190.65773 M 49.6775798889, 110.65773 L 49.6775798889, 129.90773 M 49.6775798889, 132.90773 L 49.6775798889, 168.40773 M 49.6775798889, 171.40773 L 49.6775798889, 190.65773 M 52.5664687778, 110.65773 L 52.5664687778, 129.90773 M 52.5664687778, 132.90773 L 52.5664687778, 168.40773 M 52.5664687778, 171.40773 L 52.5664687778, 190.65773 M 55.4553576667, 110.65773 L 55.4553576667, 129.90773 M 55.4553576667, 132.90773 L 55.4553576667, 168.40773 M 55.4553576667, 171.40773 L 55.4553576667, 190.65773 M 58.3442465556, 110.65773 L 58.3442465556, 129.90773 M 58.3442465556, 132.90773 L 58.3442465556, 168.40773 M 58.3442465556, 171.40773 L 58.3442465556, 190.65773 M 61.2331354444, 110.65773 L 61.2331354444, 129.90773 M 61.2331354444, 132.90773 L 61.2331354444, 168.40773 M 61.2331354444, 171.40773 L 61.2331354444, 190.65773 M 64.1220243333, 110.65773 L 64.1220243333, 129.90773 M 64.1220243333, 132.90773 L 64.1220243333, 168.40773 M 64.1220243333, 171.40773 L 64.1220243333, 190.65773 M 67.0109132222, 110.65773 L 67.0109132222, 129.90773 M 67.0109132222, 132.90773 L 67.0109132222, 168.40773 M 67.0109132222, 171.40773 L 67.0109132222, 190.65773 M 69.8998021111, 110.65773 L 69.8998021111, 129.90773 M 69.8998021111, 132.90773 L 69.8998021111, 168.40773 M 69.8998021111, 171.40773 L 69.8998021111, 190.65773 M 72.788691, 110.65773 L 72.788691, 129.90773 M 72.788691, 132.90773 L 72.788691, 168.40773 M 72.788691, 171.40773 L 72.788691, 190.65773 M 22.2331354444, 113.65773 L 22.2331354444, 149.15773 M 22.2331354444, 152.15773 L 22.2331354444, 187.65773 M 25.1220243333, 113.65773 L 25.1220243333, 149.15773 M 25.1220243333, 152.15773 L 25.1220243333, 187.65773 M 28.0109132222, 113.65773 L 28.0109132222, 149.15773 M 28.0109132222, 152.15773 L 28.0109132222, 187.65773 M 30.8998021111, 113.65773 L 30.8998021111, 149.15773 M 30.8998021111, 152.15773 L 30.8998021111, 187.65773 M 33.788691, 113.65773 L 33.788691, 149.15773 M 33.788691, 152.15773 L 33.788691, 187.65773 M 36.6775798889, 113.65773 L 36.6775798889, 149.15773 M 36.6775798889, 152.15773 L 36.6775798889, 187.65773 M 39.5664687778, 113.65773 L 39.5664687778, 149.15773 M 39.5664687778, 152.15773 L 39.5664687778, 187.65773 M 42.4553576667, 113.65773 L 42.4553576667, 149.15773 M 42.4553576667, 152.15773 L 42.4553576667, 187.65773 M 45.3442465556, 113.65773 L 45.3442465556, 149.15773 M 45.3442465556, 152.15773 L 45.3442465556, 187.65773 M 48.2331354444, 113.65773 L 48.2331354444, 149.15773 M 48.2331354444, 152.15773 L 48.2331354444, 187.65773 M 51.1220243333, 113.65773 L 51.1220243333, 149.15773 M 51.1220243333, 152.15773 L 51.1220243333, 187.65773 M 54.0109132222, 113.65773 L 54.0109132222, 149.15773 M 54.0109132222, 152.15773 L 54.0109132222, 187.65773 M 56.8998021111, 113.65773 L 56.8998021111, 149.15773 M 56.8998021111, 152.15773 L 56.8998021111, 187.65773 M 59.788691, 113.65773 L 59.788691, 149.15773 M 59.788691, 152.15773 L 59.788691, 187.65773 M 62.6775798889, 113.65773 L 62.6775798889, 149.15773 M 62.6775798889, 152.15773 L 62.6775798889, 187.65773 M 65.5664687778, 113.65773 L 65.5664687778, 149.15773 M 65.5664687778, 152.15773 L 65.5664687778, 187.65773 M 68.4553576667, 113.65773 L 68.4553576667, 149.15773 M 68.4553576667, 152.15773 L 68.4553576667, 187.65773 M 71.3442465556, 113.65773 L 71.3442465556, 149.15773 M 71.3442465556, 152.15773 L 71.3442465556, 187.65773 ">
      <desc
         id="desc873">Hinge cut parameters: actual(requested)
cut length: 35.50 mm (30.00 mm)
gap length: 3.00 mm (3.00 mm)
separation distance: 1.44 mm (1.50 mm)</desc>
    </path>
  </g>
</svg>
