<?xml version="1.0" encoding="UTF-8" standalone="no"?>
<!-- Created with Inkscape (http://www.inkscape.org/) -->

<svg
   xmlns:dc="http://purl.org/dc/elements/1.1/"
   xmlns:cc="http://creativecommons.org/ns#"
   xmlns:rdf="http://www.w3.org/1999/02/22-rdf-syntax-ns#"
   xmlns:svg="http://www.w3.org/2000/svg"
   xmlns="http://www.w3.org/2000/svg"
   xmlns:sodipodi="http://sodipodi.sourceforge.net/DTD/sodipodi-0.dtd"
   xmlns:inkscape="http://www.inkscape.org/namespaces/inkscape"
   id="svg8"
   version="1.1"
   viewBox="0 0 210 297"
   height="297mm"
   width="210mm"
   inkscape:version="0.92.4 (5da689c313, 2019-01-14)"
   sodipodi:docname="Living hinges for laser cutting.svg">
  <defs
     id="defs2" />
  <sodipodi:namedview
     id="base"
     pagecolor="#ffffff"
     bordercolor="#666666"
     borderopacity="1.0"
     inkscape:pageopacity="0.0"
     inkscape:pageshadow="2"
     inkscape:zoom="1.4"
     inkscape:cx="758.0615"
     inkscape:cy="503.57553"
     inkscape:document-units="mm"
     inkscape:current-layer="layer1"
     showgrid="false"
     inkscape:window-width="3840"
     inkscape:window-height="2066"
     inkscape:window-x="5749"
     inkscape:window-y="-11"
     inkscape:window-maximized="1" />
  <metadata
     id="metadata5">
    <rdf:RDF>
      <cc:Work
         rdf:about="">
        <dc:format>image/svg+xml</dc:format>
        <dc:type
           rdf:resource="http://purl.org/dc/dcmitype/StillImage" />
        <dc:title></dc:title>
      </cc:Work>
    </rdf:RDF>
  </metadata>
  <g
     inkscape:label="Layer 1"
     inkscape:groupmode="layer"
     id="layer1">
    <rect
       style="fill:none;stroke:#000000;stroke-width:0.1;stroke-miterlimit:4;stroke-dasharray:none;stroke-opacity:0.97374704"
       id="rect829"
       width="100.22"
       height="26"
       x="31.75"
       y="24.668146" />
    <rect
       style="fill:none;stroke:#000000;stroke-width:0.1;stroke-miterlimit:4;stroke-dasharray:none;stroke-opacity:0.97374704"
       id="rect831"
       width="38.389999"
       height="26"
       x="14.930058"
       y="120.10713" />
    <rect
       style="fill:none;stroke:#000000;stroke-width:0.1;stroke-miterlimit:4;stroke-dasharray:none;stroke-opacity:0.97374704"
       id="rect833"
       width="48.689999"
       height="80"
       x="114.52679"
       y="101.96427" />
    <path
       id="path941"
       style="stroke:#000000;stroke-width:0.1;fill:none"
       d="M 31.75, 24.668146 L 31.75, 36.168146 M 31.75, 39.168146 L 31.75, 50.668146 M 34.6976470588, 24.668146 L 34.6976470588, 36.168146 M 34.6976470588, 39.168146 L 34.6976470588, 50.668146 M 37.6452941176, 24.668146 L 37.6452941176, 36.168146 M 37.6452941176, 39.168146 L 37.6452941176, 50.668146 M 40.5929411765, 24.668146 L 40.5929411765, 36.168146 M 40.5929411765, 39.168146 L 40.5929411765, 50.668146 M 43.5405882353, 24.668146 L 43.5405882353, 36.168146 M 43.5405882353, 39.168146 L 43.5405882353, 50.668146 M 46.4882352941, 24.668146 L 46.4882352941, 36.168146 M 46.4882352941, 39.168146 L 46.4882352941, 50.668146 M 49.4358823529, 24.668146 L 49.4358823529, 36.168146 M 49.4358823529, 39.168146 L 49.4358823529, 50.668146 M 52.3835294118, 24.668146 L 52.3835294118, 36.168146 M 52.3835294118, 39.168146 L 52.3835294118, 50.668146 M 55.3311764706, 24.668146 L 55.3311764706, 36.168146 M 55.3311764706, 39.168146 L 55.3311764706, 50.668146 M 58.2788235294, 24.668146 L 58.2788235294, 36.168146 M 58.2788235294, 39.168146 L 58.2788235294, 50.668146 M 61.2264705882, 24.668146 L 61.2264705882, 36.168146 M 61.2264705882, 39.168146 L 61.2264705882, 50.668146 M 64.1741176471, 24.668146 L 64.1741176471, 36.168146 M 64.1741176471, 39.168146 L 64.1741176471, 50.668146 M 67.1217647059, 24.668146 L 67.1217647059, 36.168146 M 67.1217647059, 39.168146 L 67.1217647059, 50.668146 M 70.0694117647, 24.668146 L 70.0694117647, 36.168146 M 70.0694117647, 39.168146 L 70.0694117647, 50.668146 M 73.0170588235, 24.668146 L 73.0170588235, 36.168146 M 73.0170588235, 39.168146 L 73.0170588235, 50.668146 M 75.9647058824, 24.668146 L 75.9647058824, 36.168146 M 75.9647058824, 39.168146 L 75.9647058824, 50.668146 M 78.9123529412, 24.668146 L 78.9123529412, 36.168146 M 78.9123529412, 39.168146 L 78.9123529412, 50.668146 M 81.86, 24.668146 L 81.86, 36.168146 M 81.86, 39.168146 L 81.86, 50.668146 M 84.8076470588, 24.668146 L 84.8076470588, 36.168146 M 84.8076470588, 39.168146 L 84.8076470588, 50.668146 M 87.7552941176, 24.668146 L 87.7552941176, 36.168146 M 87.7552941176, 39.168146 L 87.7552941176, 50.668146 M 90.7029411765, 24.668146 L 90.7029411765, 36.168146 M 90.7029411765, 39.168146 L 90.7029411765, 50.668146 M 93.6505882353, 24.668146 L 93.6505882353, 36.168146 M 93.6505882353, 39.168146 L 93.6505882353, 50.668146 M 96.5982352941, 24.668146 L 96.5982352941, 36.168146 M 96.5982352941, 39.168146 L 96.5982352941, 50.668146 M 99.5458823529, 24.668146 L 99.5458823529, 36.168146 M 99.5458823529, 39.168146 L 99.5458823529, 50.668146 M 102.493529412, 24.668146 L 102.493529412, 36.168146 M 102.493529412, 39.168146 L 102.493529412, 50.668146 M 105.441176471, 24.668146 L 105.441176471, 36.168146 M 105.441176471, 39.168146 L 105.441176471, 50.668146 M 108.388823529, 24.668146 L 108.388823529, 36.168146 M 108.388823529, 39.168146 L 108.388823529, 50.668146 M 111.336470588, 24.668146 L 111.336470588, 36.168146 M 111.336470588, 39.168146 L 111.336470588, 50.668146 M 114.284117647, 24.668146 L 114.284117647, 36.168146 M 114.284117647, 39.168146 L 114.284117647, 50.668146 M 117.231764706, 24.668146 L 117.231764706, 36.168146 M 117.231764706, 39.168146 L 117.231764706, 50.668146 M 120.179411765, 24.668146 L 120.179411765, 36.168146 M 120.179411765, 39.168146 L 120.179411765, 50.668146 M 123.127058824, 24.668146 L 123.127058824, 36.168146 M 123.127058824, 39.168146 L 123.127058824, 50.668146 M 126.074705882, 24.668146 L 126.074705882, 36.168146 M 126.074705882, 39.168146 L 126.074705882, 50.668146 M 129.022352941, 24.668146 L 129.022352941, 36.168146 M 129.022352941, 39.168146 L 129.022352941, 50.668146 M 131.97, 24.668146 L 131.97, 36.168146 M 131.97, 39.168146 L 131.97, 50.668146 M 33.2238235294, 27.668146 L 33.2238235294, 47.668146 M 36.1714705882, 27.668146 L 36.1714705882, 47.668146 M 39.1191176471, 27.668146 L 39.1191176471, 47.668146 M 42.0667647059, 27.668146 L 42.0667647059, 47.668146 M 45.0144117647, 27.668146 L 45.0144117647, 47.668146 M 47.9620588235, 27.668146 L 47.9620588235, 47.668146 M 50.9097058824, 27.668146 L 50.9097058824, 47.668146 M 53.8573529412, 27.668146 L 53.8573529412, 47.668146 M 56.805, 27.668146 L 56.805, 47.668146 M 59.7526470588, 27.668146 L 59.7526470588, 47.668146 M 62.7002941176, 27.668146 L 62.7002941176, 47.668146 M 65.6479411765, 27.668146 L 65.6479411765, 47.668146 M 68.5955882353, 27.668146 L 68.5955882353, 47.668146 M 71.5432352941, 27.668146 L 71.5432352941, 47.668146 M 74.4908823529, 27.668146 L 74.4908823529, 47.668146 M 77.4385294118, 27.668146 L 77.4385294118, 47.668146 M 80.3861764706, 27.668146 L 80.3861764706, 47.668146 M 83.3338235294, 27.668146 L 83.3338235294, 47.668146 M 86.2814705882, 27.668146 L 86.2814705882, 47.668146 M 89.2291176471, 27.668146 L 89.2291176471, 47.668146 M 92.1767647059, 27.668146 L 92.1767647059, 47.668146 M 95.1244117647, 27.668146 L 95.1244117647, 47.668146 M 98.0720588235, 27.668146 L 98.0720588235, 47.668146 M 101.019705882, 27.668146 L 101.019705882, 47.668146 M 103.967352941, 27.668146 L 103.967352941, 47.668146 M 106.915, 27.668146 L 106.915, 47.668146 M 109.862647059, 27.668146 L 109.862647059, 47.668146 M 112.810294118, 27.668146 L 112.810294118, 47.668146 M 115.757941176, 27.668146 L 115.757941176, 47.668146 M 118.705588235, 27.668146 L 118.705588235, 47.668146 M 121.653235294, 27.668146 L 121.653235294, 47.668146 M 124.600882353, 27.668146 L 124.600882353, 47.668146 M 127.548529412, 27.668146 L 127.548529412, 47.668146 M 130.496176471, 27.668146 L 130.496176471, 47.668146 ">
      <desc
         id="desc939">Hinge cut parameters: actual(requested)
cut length: 20.00 mm (30.00 mm)
gap length: 3.00 mm (3.00 mm)
separation distance: 1.47 mm (1.50 mm)</desc>
    </path>
    <path
       id="path973"
       style="stroke:#000000;stroke-width:0.1;fill:none"
       d="M 14.930058, 120.10713 L 14.930058, 131.60713 M 14.930058, 134.60713 L 14.930058, 146.10713 M 17.8831348462, 120.10713 L 17.8831348462, 131.60713 M 17.8831348462, 134.60713 L 17.8831348462, 146.10713 M 20.8362116923, 120.10713 L 20.8362116923, 131.60713 M 20.8362116923, 134.60713 L 20.8362116923, 146.10713 M 23.7892885385, 120.10713 L 23.7892885385, 131.60713 M 23.7892885385, 134.60713 L 23.7892885385, 146.10713 M 26.7423653846, 120.10713 L 26.7423653846, 131.60713 M 26.7423653846, 134.60713 L 26.7423653846, 146.10713 M 29.6954422308, 120.10713 L 29.6954422308, 131.60713 M 29.6954422308, 134.60713 L 29.6954422308, 146.10713 M 32.6485190769, 120.10713 L 32.6485190769, 131.60713 M 32.6485190769, 134.60713 L 32.6485190769, 146.10713 M 35.6015959231, 120.10713 L 35.6015959231, 131.60713 M 35.6015959231, 134.60713 L 35.6015959231, 146.10713 M 38.5546727692, 120.10713 L 38.5546727692, 131.60713 M 38.5546727692, 134.60713 L 38.5546727692, 146.10713 M 41.5077496154, 120.10713 L 41.5077496154, 131.60713 M 41.5077496154, 134.60713 L 41.5077496154, 146.10713 M 44.4608264615, 120.10713 L 44.4608264615, 131.60713 M 44.4608264615, 134.60713 L 44.4608264615, 146.10713 M 47.4139033077, 120.10713 L 47.4139033077, 131.60713 M 47.4139033077, 134.60713 L 47.4139033077, 146.10713 M 50.3669801538, 120.10713 L 50.3669801538, 131.60713 M 50.3669801538, 134.60713 L 50.3669801538, 146.10713 M 53.320057, 120.10713 L 53.320057, 131.60713 M 53.320057, 134.60713 L 53.320057, 146.10713 M 16.4065964231, 123.10713 L 16.4065964231, 143.10713 M 19.3596732692, 123.10713 L 19.3596732692, 143.10713 M 22.3127501154, 123.10713 L 22.3127501154, 143.10713 M 25.2658269615, 123.10713 L 25.2658269615, 143.10713 M 28.2189038077, 123.10713 L 28.2189038077, 143.10713 M 31.1719806538, 123.10713 L 31.1719806538, 143.10713 M 34.1250575, 123.10713 L 34.1250575, 143.10713 M 37.0781343462, 123.10713 L 37.0781343462, 143.10713 M 40.0312111923, 123.10713 L 40.0312111923, 143.10713 M 42.9842880385, 123.10713 L 42.9842880385, 143.10713 M 45.9373648846, 123.10713 L 45.9373648846, 143.10713 M 48.8904417308, 123.10713 L 48.8904417308, 143.10713 M 51.8435185769, 123.10713 L 51.8435185769, 143.10713 ">
      <desc
         id="desc971">Hinge cut parameters: actual(requested)
cut length: 20.00 mm (30.00 mm)
gap length: 3.00 mm (3.00 mm)
separation distance: 1.48 mm (1.50 mm)</desc>
    </path>
    <path
       id="path991"
       style="stroke:#000000;stroke-width:0.1;fill:none"
       d="M 114.52679, 101.96427 L 114.52679, 121.21427 M 114.52679, 124.21427 L 114.52679, 159.71427 M 114.52679, 162.71427 L 114.52679, 181.96427 M 117.569914938, 101.96427 L 117.569914938, 121.21427 M 117.569914938, 124.21427 L 117.569914938, 159.71427 M 117.569914938, 162.71427 L 117.569914938, 181.96427 M 120.613039875, 101.96427 L 120.613039875, 121.21427 M 120.613039875, 124.21427 L 120.613039875, 159.71427 M 120.613039875, 162.71427 L 120.613039875, 181.96427 M 123.656164813, 101.96427 L 123.656164813, 121.21427 M 123.656164813, 124.21427 L 123.656164813, 159.71427 M 123.656164813, 162.71427 L 123.656164813, 181.96427 M 126.69928975, 101.96427 L 126.69928975, 121.21427 M 126.69928975, 124.21427 L 126.69928975, 159.71427 M 126.69928975, 162.71427 L 126.69928975, 181.96427 M 129.742414688, 101.96427 L 129.742414688, 121.21427 M 129.742414688, 124.21427 L 129.742414688, 159.71427 M 129.742414688, 162.71427 L 129.742414688, 181.96427 M 132.785539625, 101.96427 L 132.785539625, 121.21427 M 132.785539625, 124.21427 L 132.785539625, 159.71427 M 132.785539625, 162.71427 L 132.785539625, 181.96427 M 135.828664562, 101.96427 L 135.828664562, 121.21427 M 135.828664562, 124.21427 L 135.828664562, 159.71427 M 135.828664562, 162.71427 L 135.828664562, 181.96427 M 138.8717895, 101.96427 L 138.8717895, 121.21427 M 138.8717895, 124.21427 L 138.8717895, 159.71427 M 138.8717895, 162.71427 L 138.8717895, 181.96427 M 141.914914438, 101.96427 L 141.914914438, 121.21427 M 141.914914438, 124.21427 L 141.914914438, 159.71427 M 141.914914438, 162.71427 L 141.914914438, 181.96427 M 144.958039375, 101.96427 L 144.958039375, 121.21427 M 144.958039375, 124.21427 L 144.958039375, 159.71427 M 144.958039375, 162.71427 L 144.958039375, 181.96427 M 148.001164313, 101.96427 L 148.001164313, 121.21427 M 148.001164313, 124.21427 L 148.001164313, 159.71427 M 148.001164313, 162.71427 L 148.001164313, 181.96427 M 151.04428925, 101.96427 L 151.04428925, 121.21427 M 151.04428925, 124.21427 L 151.04428925, 159.71427 M 151.04428925, 162.71427 L 151.04428925, 181.96427 M 154.087414188, 101.96427 L 154.087414188, 121.21427 M 154.087414188, 124.21427 L 154.087414188, 159.71427 M 154.087414188, 162.71427 L 154.087414188, 181.96427 M 157.130539125, 101.96427 L 157.130539125, 121.21427 M 157.130539125, 124.21427 L 157.130539125, 159.71427 M 157.130539125, 162.71427 L 157.130539125, 181.96427 M 160.173664062, 101.96427 L 160.173664062, 121.21427 M 160.173664062, 124.21427 L 160.173664062, 159.71427 M 160.173664062, 162.71427 L 160.173664062, 181.96427 M 163.216789, 101.96427 L 163.216789, 121.21427 M 163.216789, 124.21427 L 163.216789, 159.71427 M 163.216789, 162.71427 L 163.216789, 181.96427 M 116.048352469, 104.96427 L 116.048352469, 140.46427 M 116.048352469, 143.46427 L 116.048352469, 178.96427 M 119.091477406, 104.96427 L 119.091477406, 140.46427 M 119.091477406, 143.46427 L 119.091477406, 178.96427 M 122.134602344, 104.96427 L 122.134602344, 140.46427 M 122.134602344, 143.46427 L 122.134602344, 178.96427 M 125.177727281, 104.96427 L 125.177727281, 140.46427 M 125.177727281, 143.46427 L 125.177727281, 178.96427 M 128.220852219, 104.96427 L 128.220852219, 140.46427 M 128.220852219, 143.46427 L 128.220852219, 178.96427 M 131.263977156, 104.96427 L 131.263977156, 140.46427 M 131.263977156, 143.46427 L 131.263977156, 178.96427 M 134.307102094, 104.96427 L 134.307102094, 140.46427 M 134.307102094, 143.46427 L 134.307102094, 178.96427 M 137.350227031, 104.96427 L 137.350227031, 140.46427 M 137.350227031, 143.46427 L 137.350227031, 178.96427 M 140.393351969, 104.96427 L 140.393351969, 140.46427 M 140.393351969, 143.46427 L 140.393351969, 178.96427 M 143.436476906, 104.96427 L 143.436476906, 140.46427 M 143.436476906, 143.46427 L 143.436476906, 178.96427 M 146.479601844, 104.96427 L 146.479601844, 140.46427 M 146.479601844, 143.46427 L 146.479601844, 178.96427 M 149.522726781, 104.96427 L 149.522726781, 140.46427 M 149.522726781, 143.46427 L 149.522726781, 178.96427 M 152.565851719, 104.96427 L 152.565851719, 140.46427 M 152.565851719, 143.46427 L 152.565851719, 178.96427 M 155.608976656, 104.96427 L 155.608976656, 140.46427 M 155.608976656, 143.46427 L 155.608976656, 178.96427 M 158.652101594, 104.96427 L 158.652101594, 140.46427 M 158.652101594, 143.46427 L 158.652101594, 178.96427 M 161.695226531, 104.96427 L 161.695226531, 140.46427 M 161.695226531, 143.46427 L 161.695226531, 178.96427 ">
      <desc
         id="desc989">Hinge cut parameters: actual(requested)
cut length: 35.50 mm (30.00 mm)
gap length: 3.00 mm (3.00 mm)
separation distance: 1.52 mm (1.50 mm)</desc>
    </path>
  </g>
</svg>
