0
SECTION
2
HEADER
9
$INSUNITS
70
4
9
$ACADVER
1
AC1014
9
$HANDSEED
5
FFFF
0
ENDSEC
0
SECTION
2
TABLES
0
TABLE
2
VPORT
5
8
100
AcDbSymbolTable
0
ENDTAB
0
TABLE
2
LTYPE
5
5
100
AcDbSymbolTable
0
LTYPE
5
14
100
AcDbSymbolTableRecord
100
AcDbLinetypeTableRecord
2
BYBLOCK
70
0
0
LTYPE
5
15
100
AcDbSymbolTableRecord
100
AcDbLinetypeTableRecord
2
BYLAYER
70
0
0
ENDTAB
0
TABLE
2
LAYER
5
2
100
AcDbSymbolTable
70
2
0
LAYER
5
50
100
AcDbSymbolTableRecord
100
AcDbLayerTableRecord
2
0
70
0
6
CONTINUOUS
0
ENDTAB
0
TABLE
2
STYLE
5
3
100
AcDbSymbolTable
70
1
0
STYLE
5
11
100
AcDbSymbolTableRecord
100
AcDbTextStyleTableRecord
2
STANDARD
70
0
0
ENDTAB
0
TABLE
2
VIEW
5
6
100
AcDbSymbolTable
70
0
0
ENDTAB
0
TABLE
2
UCS
5
7
100
AcDbSymbolTable
70
0
0
ENDTAB
0
TABLE
2
APPID
5
9
100
AcDbSymbolTable
70
2
0
APPID
5
12
100
AcDbSymbolTableRecord
100
AcDbRegAppTableRecord
2
ACAD
70
0
0
ENDTAB
0
TABLE
2
DIMSTYLE
5
A
100
AcDbSymbolTable
70
1
0
ENDTAB
0
TABLE
2
BLOCK_RECORD
5
1
100
AcDbSymbolTable
70
1
0
BLOCK_RECORD
5
1F
100
AcDbSymbolTableRecord
100
AcDbBlockTableRecord
2
*MODEL_SPACE
0
BLOCK_RECORD
5
1B
100
AcDbSymbolTableRecord
100
AcDbBlockTableRecord
2
*PAPER_SPACE
0
ENDTAB
0
ENDSEC
0
SECTION
2
BLOCKS
0
BLOCK
5
20
100
AcDbEntity
100
AcDbBlockBegin
2
*MODEL_SPACE
0
ENDBLK
5
21
100
AcDbEntity
100
AcDbBlockEnd
0
BLOCK
5
1C
100
AcDbEntity
100
AcDbBlockBegin
2
*PAPER_SPACE
0
ENDBLK
5
1D
100
AcDbEntity
100
AcDbBlockEnd
0
ENDSEC
0
SECTION
2
ENTITIES
0
CIRCLE
5
100
100
AcDbEntity
8
0
100
AcDbCircle
10
94.389485969278496
20
-55.222809919032784
30
0
40
7.475000000000005
210
0
220
0
230
1
0
CIRCLE
5
101
100
AcDbEntity
8
0
100
AcDbCircle
10
-94.389485969278496
20
-55.22280991903277
30
0
40
7.475000000000005
210
0
220
0
230
1
0
CIRCLE
5
102
100
AcDbEntity
8
0
100
AcDbCircle
10
72.272380773475703
20
-39.736246137554559
30
0
40
7.475000000000005
210
0
220
0
230
1
0
CIRCLE
5
103
100
AcDbEntity
8
0
100
AcDbCircle
10
-72.272380773475717
20
-39.736246137554502
30
0
40
7.475000000000005
210
0
220
0
230
1
0
LINE
5
104
100
AcDbEntity
8
0
100
AcDbLine
10
84.113567150162609
20
-60.265799352190371
30
0
11
82.392837841109497
21
-62.723255485057351
31
0
0
LINE
5
105
100
AcDbEntity
8
0
100
AcDbLine
10
82.392837841109497
20
-62.723255485057351
30
0
11
90.625315886213841
21
-68.487698670385385
31
0
0
LINE
5
106
100
AcDbEntity
8
0
100
AcDbLine
10
90.625315886213841
20
-68.487698670385385
30
0
11
92.346045195266996
21
-66.03024253751839
31
0
0
LINE
5
107
100
AcDbEntity
8
0
100
AcDbLine
10
92.346045195266996
20
-66.03024253751839
30
0
11
100.53756563815691
21
-71.766006901028859
31
0
0
LINE
5
108
100
AcDbEntity
8
0
100
AcDbLine
10
100.53756563815691
20
-71.766006901028859
30
0
11
103.43412664172968
21
-67.629289077369464
31
0
0
LINE
5
109
100
AcDbEntity
8
0
100
AcDbLine
10
103.43412664172968
20
-67.629289077369464
30
0
11
100.97667050886267
21
-65.908559768316337
31
0
0
LINE
5
110
100
AcDbEntity
8
0
100
AcDbLine
10
100.97667050886267
20
-65.908559768316337
30
0
11
106.6837560505556
21
-57.757996927640825
31
0
0
LINE
5
111
100
AcDbEntity
8
0
100
AcDbLine
10
106.6837560505556
20
-57.757996927640825
30
0
11
109.14121218342261
21
-59.47872623669398
31
0
0
LINE
5
112
100
AcDbEntity
8
0
100
AcDbLine
10
109.14121218342261
20
-59.47872623669398
30
0
11
112.03777318699535
21
-55.342008413034591
31
0
0
LINE
5
113
100
AcDbEntity
8
0
100
AcDbLine
10
112.03777318699535
20
-55.342008413034591
30
0
11
103.84625274410544
21
-49.606244049524136
31
0
0
LINE
5
114
100
AcDbEntity
8
0
100
AcDbLine
10
103.84625274410544
20
-49.606244049524136
30
0
11
105.5669820531586
21
-47.14878791665717
31
0
0
LINE
5
115
100
AcDbEntity
8
0
100
AcDbLine
10
105.5669820531586
20
-47.14878791665717
30
0
11
97.334504008054225
21
-41.384344731329165
31
0
0
LINE
5
116
100
AcDbEntity
8
0
100
AcDbLine
10
97.334504008054225
20
-41.384344731329165
30
0
11
95.61377469900107
21
-43.841800864196124
31
0
0
LINE
5
117
100
AcDbEntity
8
0
100
AcDbLine
10
95.61377469900107
20
-43.841800864196124
30
0
11
87.463211858325636
21
-38.134715322503205
31
0
0
LINE
5
118
100
AcDbEntity
8
0
100
AcDbLine
10
87.463211858325636
20
-38.134715322503205
30
0
11
89.183941167378791
21
-35.677259189636253
31
0
0
LINE
5
119
100
AcDbEntity
8
0
100
AcDbLine
10
89.183941167378791
20
-35.677259189636253
30
0
11
80.951463122274404
21
-29.912816004308219
31
0
0
LINE
5
120
100
AcDbEntity
8
0
100
AcDbLine
10
80.951463122274404
20
-29.912816004308219
30
0
11
79.230733813221249
21
-32.370272137175185
31
0
0
LINE
5
121
100
AcDbEntity
8
0
100
AcDbLine
10
79.230733813221249
20
-32.370272137175185
30
0
11
71.080170972545801
21
-26.663186595482294
31
0
0
LINE
5
122
100
AcDbEntity
8
0
100
AcDbLine
10
71.080170972545801
20
-26.663186595482294
30
0
11
72.800900281598928
21
-24.205730462615303
31
0
0
LINE
5
123
100
AcDbEntity
8
0
100
AcDbLine
10
72.800900281598928
20
-24.205730462615303
30
0
11
64.568422236494584
21
-18.44128727728728
31
0
0
LINE
5
124
100
AcDbEntity
8
0
100
AcDbLine
10
64.568422236494584
20
-18.44128727728728
30
0
11
62.847692927441443
21
-20.898743410154257
31
0
0
LINE
5
125
100
AcDbEntity
8
0
100
AcDbLine
10
62.847692927441443
20
-20.898743410154257
30
0
11
54.676651285616288
21
-15.177318457522851
31
0
0
ARC
5
126
100
AcDbEntity
8
0
100
AcDbCircle
10
78.419642732613042
20
18.731187601228125
30
0
40
41.394642479293289
210
0
220
0
230
1
100
AcDbArc
50
180
51
235.00000011879035
0
LINE
5
127
100
AcDbEntity
8
0
100
AcDbLine
10
37.02500025331976
20
18.731187601228083
30
0
11
37.02500025331976
21
28.706188048262934
31
0
0
LINE
5
128
100
AcDbEntity
8
0
100
AcDbLine
10
37.02500025331976
20
28.706188048262934
30
0
11
40.025000298023237
21
28.706188048262934
31
0
0
LINE
5
129
100
AcDbEntity
8
0
100
AcDbLine
10
40.025000298023237
20
28.706188048262934
30
0
11
40.025000298023237
21
58.756188495297764
31
0
0
LINE
5
130
100
AcDbEntity
8
0
100
AcDbLine
10
40.025000298023237
20
58.756188495297764
30
0
11
37.02500025331976
21
58.756188495297764
31
0
0
LINE
5
131
100
AcDbEntity
8
0
100
AcDbLine
10
37.02500025331976
20
58.756188495297764
30
0
11
37.02500025331976
21
68.706188644309393
31
0
0
LINE
5
132
100
AcDbEntity
8
0
100
AcDbLine
10
37.02500025331976
20
68.706188644309393
30
0
11
40.025000298023237
21
68.706188644309393
31
0
0
LINE
5
133
100
AcDbEntity
8
0
100
AcDbLine
10
40.025000298023237
20
68.706188644309393
30
0
11
40.025000298023237
21
71.75618864430939
31
0
0
LINE
5
134
100
AcDbEntity
8
0
100
AcDbLine
10
40.025000298023237
20
71.75618864430939
30
0
11
26.403570579205255
21
71.75618864430939
31
0
0
LINE
5
135
100
AcDbEntity
8
0
100
AcDbLine
10
26.403570579205255
20
71.75618864430939
30
0
11
26.403570579205255
21
68.756188599605906
31
0
0
LINE
5
136
100
AcDbEntity
8
0
100
AcDbLine
10
26.403570579205255
20
68.756188599605906
30
0
11
15.882142007776686
21
68.756188599605906
31
0
0
LINE
5
137
100
AcDbEntity
8
0
100
AcDbLine
10
15.882142007776686
20
68.756188599605906
30
0
11
15.882142007776686
21
71.75618864430939
31
0
0
LINE
5
138
100
AcDbEntity
8
0
100
AcDbLine
10
15.882142007776686
20
71.75618864430939
30
0
11
5.2607134363481141
21
71.75618864430939
31
0
0
LINE
5
139
100
AcDbEntity
8
0
100
AcDbLine
10
5.2607134363481141
20
71.75618864430939
30
0
11
5.2607134363481141
21
68.756188599605906
31
0
0
LINE
5
140
100
AcDbEntity
8
0
100
AcDbLine
10
5.2607134363481141
20
68.756188599605906
30
0
11
-5.2607151350804582
21
68.756188599605906
31
0
0
LINE
5
141
100
AcDbEntity
8
0
100
AcDbLine
10
-5.2607151350804582
20
68.756188599605906
30
0
11
-5.2607151350804582
21
71.75618864430939
31
0
0
LINE
5
142
100
AcDbEntity
8
0
100
AcDbLine
10
-5.2607151350804582
20
71.75618864430939
30
0
11
-15.882143706509028
21
71.75618864430939
31
0
0
LINE
5
143
100
AcDbEntity
8
0
100
AcDbLine
10
-15.882143706509028
20
71.75618864430939
30
0
11
-15.882143706509028
21
68.756188599605906
31
0
0
LINE
5
144
100
AcDbEntity
8
0
100
AcDbLine
10
-15.882143706509028
20
68.756188599605906
30
0
11
-26.403572277937602
21
68.756188599605906
31
0
0
LINE
5
145
100
AcDbEntity
8
0
100
AcDbLine
10
-26.403572277937602
20
68.756188599605906
30
0
11
-26.403572277937602
21
71.756188644227038
31
0
0
LINE
5
146
100
AcDbEntity
8
0
100
AcDbLine
10
-26.403572277937602
20
71.756188644227038
30
0
11
-40.025000894069649
21
71.756188689095225
31
0
0
LINE
5
147
100
AcDbEntity
8
0
100
AcDbLine
10
-40.025000894069649
20
71.756188689095225
30
0
11
-40.025000894069649
21
68.706188644309393
31
0
0
LINE
5
148
100
AcDbEntity
8
0
100
AcDbLine
10
-40.025000894069649
20
68.706188644309393
30
0
11
-37.025000849366172
21
68.706188644309393
31
0
0
LINE
5
149
100
AcDbEntity
8
0
100
AcDbLine
10
-37.025000849366172
20
68.706188644309393
30
0
11
-37.025000849366172
21
58.756188495297764
31
0
0
LINE
5
150
100
AcDbEntity
8
0
100
AcDbLine
10
-37.025000849366172
20
58.756188495297764
30
0
11
-40.025000298023201
21
58.756188495297764
31
0
0
LINE
5
151
100
AcDbEntity
8
0
100
AcDbLine
10
-40.025000298023201
20
58.756188495297764
30
0
11
-40.025000298023201
21
28.706188048262934
31
0
0
LINE
5
152
100
AcDbEntity
8
0
100
AcDbLine
10
-40.025000298023201
20
28.706188048262934
30
0
11
-37.025000849366172
21
28.706188048262934
31
0
0
LINE
5
153
100
AcDbEntity
8
0
100
AcDbLine
10
-37.025000849366172
20
28.706188048262934
30
0
11
-37.025000849366158
21
18.731187600588839
31
0
0
ARC
5
154
100
AcDbEntity
8
0
100
AcDbCircle
10
-78.419642095842761
20
18.731186542108176
30
0
40
41.394641246476631
210
-0
220
0
230
1
100
AcDbArc
50
-55.000000000000043
51
1.4787793334710982e-06
0
LINE
5
155
100
AcDbEntity
8
0
100
AcDbLine
10
-54.676651285658679
20
-15.177318457552571
30
0
11
-62.8476929274414
21
-20.898743410154246
31
0
0
LINE
5
156
100
AcDbEntity
8
0
100
AcDbLine
10
-62.8476929274414
20
-20.898743410154246
30
0
11
-64.568422236494541
21
-18.441287277287277
31
0
0
LINE
5
157
100
AcDbEntity
8
0
100
AcDbLine
10
-64.568422236494541
20
-18.441287277287273
30
0
11
-72.800900281598899
21
-24.205730462615286
31
0
0
LINE
5
158
100
AcDbEntity
8
0
100
AcDbLine
10
-72.800900281598899
20
-24.205730462615286
30
0
11
-71.080170972545758
21
-26.663186595482259
31
0
0
LINE
5
159
100
AcDbEntity
8
0
100
AcDbLine
10
-71.080170972545758
20
-26.663186595482259
30
0
11
-79.230733813221235
21
-32.370272137175164
31
0
0
LINE
5
160
100
AcDbEntity
8
0
100
AcDbLine
10
-79.230733813221235
20
-32.370272137175164
30
0
11
-80.951463122274362
21
-29.912816004308191
31
0
0
LINE
5
161
100
AcDbEntity
8
0
100
AcDbLine
10
-80.951463122274362
20
-29.912816004308191
30
0
11
-89.18394116737872
21
-35.677259189636203
31
0
0
LINE
5
162
100
AcDbEntity
8
0
100
AcDbLine
10
-89.18394116737872
20
-35.677259189636203
30
0
11
-87.463211858325579
21
-38.134715322503183
31
0
0
LINE
5
163
100
AcDbEntity
8
0
100
AcDbLine
10
-87.463211858325579
20
-38.134715322503183
30
0
11
-95.613774699001027
21
-43.841800864196088
31
0
0
LINE
5
164
100
AcDbEntity
8
0
100
AcDbLine
10
-95.613774699001027
20
-43.841800864196088
30
0
11
-97.334504008054168
21
-41.384344731329108
31
0
0
LINE
5
165
100
AcDbEntity
8
0
100
AcDbLine
10
-97.334504008054168
20
-41.384344731329108
30
0
11
-105.56698205315855
21
-47.14878791665712
31
0
0
LINE
5
166
100
AcDbEntity
8
0
100
AcDbLine
10
-105.56698205315855
20
-47.14878791665712
30
0
11
-103.8462527441054
21
-49.606244049524115
31
0
0
LINE
5
167
100
AcDbEntity
8
0
100
AcDbLine
10
-103.8462527441054
20
-49.606244049524115
30
0
11
-112.03777318699534
21
-55.342008413034584
31
0
0
LINE
5
168
100
AcDbEntity
8
0
100
AcDbLine
10
-112.03777318699534
20
-55.342008413034584
30
0
11
-109.14121218342257
21
-59.478726236693973
31
0
0
LINE
5
169
100
AcDbEntity
8
0
100
AcDbLine
10
-109.14121218342257
20
-59.478726236693973
30
0
11
-106.68375605055559
21
-57.757996927640832
31
0
0
LINE
5
170
100
AcDbEntity
8
0
100
AcDbLine
10
-106.68375605055559
20
-57.757996927640832
30
0
11
-100.97667050886265
21
-65.908559768316323
31
0
0
LINE
5
171
100
AcDbEntity
8
0
100
AcDbLine
10
-100.97667050886265
20
-65.908559768316323
30
0
11
-103.43412664172965
21
-67.629289077369464
31
0
0
LINE
5
172
100
AcDbEntity
8
0
100
AcDbLine
10
-103.43412664172965
20
-67.629289077369464
30
0
11
-100.53756563815688
21
-71.766006901028845
31
0
0
LINE
5
173
100
AcDbEntity
8
0
100
AcDbLine
10
-100.53756563815688
20
-71.766006901028845
30
0
11
-92.346045195266967
21
-66.03024253751839
31
0
0
LINE
5
174
100
AcDbEntity
8
0
100
AcDbLine
10
-92.346045195266967
20
-66.03024253751839
30
0
11
-90.625315886213826
21
-68.487698670385356
31
0
0
LINE
5
175
100
AcDbEntity
8
0
100
AcDbLine
10
-90.625315886213826
20
-68.487698670385356
30
0
11
-82.392837841109454
21
-62.723255485057344
31
0
0
LINE
5
176
100
AcDbEntity
8
0
100
AcDbLine
10
-82.392837841109454
20
-62.723255485057344
30
0
11
-84.113567150162595
21
-60.265799352190363
31
0
0
LINE
5
177
100
AcDbEntity
8
0
100
AcDbLine
10
-84.113567150162595
20
-60.265799352190363
30
0
11
-75.963004309487118
21
-54.558713810497473
31
0
0
LINE
5
178
100
AcDbEntity
8
0
100
AcDbLine
10
-75.963004309487118
20
-54.558713810497473
30
0
11
-74.242275000433978
21
-57.016169943364446
31
0
0
LINE
5
179
100
AcDbEntity
8
0
100
AcDbLine
10
-74.242275000433978
20
-57.016169943364446
30
0
11
-66.00979695532962
21
-51.251726758036426
31
0
0
LINE
5
180
100
AcDbEntity
8
0
100
AcDbLine
10
-66.00979695532962
20
-51.251726758036426
30
0
11
-67.730526264382746
21
-48.794270625169453
31
0
0
LINE
5
181
100
AcDbEntity
8
0
100
AcDbLine
10
-67.730526264382746
20
-48.794270625169453
30
0
11
-59.579963423707277
21
-43.087185083476541
31
0
0
LINE
5
182
100
AcDbEntity
8
0
100
AcDbLine
10
-59.579963423707277
20
-43.087185083476541
30
0
11
-57.859234114654143
21
-45.544641216343521
31
0
0
LINE
5
183
100
AcDbEntity
8
0
100
AcDbLine
10
-57.859234114654143
20
-45.544641216343521
30
0
11
-49.626756069549778
21
-39.780198031015502
31
0
0
LINE
5
184
100
AcDbEntity
8
0
100
AcDbLine
10
-49.626756069549778
20
-39.780198031015502
30
0
11
-51.347485378602912
21
-37.322741898148536
31
0
0
LINE
5
185
100
AcDbEntity
8
0
100
AcDbLine
10
-51.347485378602912
20
-37.322741898148536
30
0
11
-43.176443736820232
21
-31.601316945546849
31
0
0
ARC
5
186
100
AcDbEntity
8
0
100
AcDbCircle
10
8.8817841970012523e-15
20
-93.263669006499796
30
0
40
75.275832479273959
210
0
220
-0
230
1
100
AcDbArc
50
55.000000000000021
51
124.99999999999994
0
LINE
5
187
100
AcDbEntity
8
0
100
AcDbLine
10
43.176443736820261
20
-31.601316945546849
30
0
11
51.347485378602968
21
-37.322741898148564
31
0
0
LINE
5
188
100
AcDbEntity
8
0
100
AcDbLine
10
51.347485378602968
20
-37.322741898148564
30
0
11
49.626756069549828
21
-39.780198031015537
31
0
0
LINE
5
189
100
AcDbEntity
8
0
100
AcDbLine
10
49.626756069549828
20
-39.780198031015537
30
0
11
57.8592341146542
21
-45.544641216343543
31
0
0
LINE
5
190
100
AcDbEntity
8
0
100
AcDbLine
10
57.8592341146542
20
-45.544641216343543
30
0
11
59.579963423707326
21
-43.087185083476555
31
0
0
LINE
5
191
100
AcDbEntity
8
0
100
AcDbLine
10
59.579963423707326
20
-43.087185083476555
30
0
11
67.730526264382789
21
-48.794270625169467
31
0
0
LINE
5
192
100
AcDbEntity
8
0
100
AcDbLine
10
67.730526264382789
20
-48.794270625169467
30
0
11
66.009796955329648
21
-51.25172675803644
31
0
0
LINE
5
193
100
AcDbEntity
8
0
100
AcDbLine
10
66.009796955329648
20
-51.25172675803644
30
0
11
74.242275000434006
21
-57.016169943364446
31
0
0
LINE
5
194
100
AcDbEntity
8
0
100
AcDbLine
10
74.242275000434006
20
-57.016169943364446
30
0
11
75.963004309487147
21
-54.558713810497473
31
0
0
LINE
5
195
100
AcDbEntity
8
0
100
AcDbLine
10
75.963004309487147
20
-54.558713810497473
30
0
11
84.113567150162609
21
-60.265799352190371
31
0
0
ENDSEC
0
SECTION
2
OBJECTS
0
DICTIONARY
5
C
100
AcDbDictionary
3
ACAD_GROUP
350
D
3
ACAD_MLINESTYLE
350
17
0
DICTIONARY
5
D
100
AcDbDictionary
0
DICTIONARY
5
1A
330
C
100
AcDbDictionary
0
DICTIONARY
5
17
100
AcDbDictionary
0
ENDSEC
0
EOF
