0
SECTION
2
HEADER
9
$INSUNITS
70
4
9
$ACADVER
1
AC1014
9
$HANDSEED
5
FFFF
0
ENDSEC
0
SECTION
2
TABLES
0
TABLE
2
VPORT
5
8
100
AcDbSymbolTable
0
ENDTAB
0
TABLE
2
LTYPE
5
5
100
AcDbSymbolTable
0
LTYPE
5
14
100
AcDbSymbolTableRecord
100
AcDbLinetypeTableRecord
2
BYBLOCK
70
0
0
LTYPE
5
15
100
AcDbSymbolTableRecord
100
AcDbLinetypeTableRecord
2
BYLAYER
70
0
0
ENDTAB
0
TABLE
2
LAYER
5
2
100
AcDbSymbolTable
70
2
0
LAYER
5
50
100
AcDbSymbolTableRecord
100
AcDbLayerTableRecord
2
0
70
0
6
CONTINUOUS
0
ENDTAB
0
TABLE
2
STYLE
5
3
100
AcDbSymbolTable
70
1
0
STYLE
5
11
100
AcDbSymbolTableRecord
100
AcDbTextStyleTableRecord
2
STANDARD
70
0
0
ENDTAB
0
TABLE
2
VIEW
5
6
100
AcDbSymbolTable
70
0
0
ENDTAB
0
TABLE
2
UCS
5
7
100
AcDbSymbolTable
70
0
0
ENDTAB
0
TABLE
2
APPID
5
9
100
AcDbSymbolTable
70
2
0
APPID
5
12
100
AcDbSymbolTableRecord
100
AcDbRegAppTableRecord
2
ACAD
70
0
0
ENDTAB
0
TABLE
2
DIMSTYLE
5
A
100
AcDbSymbolTable
70
1
0
ENDTAB
0
TABLE
2
BLOCK_RECORD
5
1
100
AcDbSymbolTable
70
1
0
BLOCK_RECORD
5
1F
100
AcDbSymbolTableRecord
100
AcDbBlockTableRecord
2
*MODEL_SPACE
0
BLOCK_RECORD
5
1B
100
AcDbSymbolTableRecord
100
AcDbBlockTableRecord
2
*PAPER_SPACE
0
ENDTAB
0
ENDSEC
0
SECTION
2
BLOCKS
0
BLOCK
5
20
100
AcDbEntity
100
AcDbBlockBegin
2
*MODEL_SPACE
0
ENDBLK
5
21
100
AcDbEntity
100
AcDbBlockEnd
0
BLOCK
5
1C
100
AcDbEntity
100
AcDbBlockBegin
2
*PAPER_SPACE
0
ENDBLK
5
1D
100
AcDbEntity
100
AcDbBlockEnd
0
ENDSEC
0
SECTION
2
ENTITIES
0
LINE
5
100
100
AcDbEntity
8
0
100
AcDbLine
10
-5.310714263362537
20
42.024998494982704
30
0
11
-15.832142834791112
21
42.024998494982704
31
0
0
LINE
5
101
100
AcDbEntity
8
0
100
AcDbLine
10
-15.832142834791112
20
42.024998494982704
30
0
11
-15.832142834791112
21
44.974998494982721
31
0
0
LINE
5
102
100
AcDbEntity
8
0
100
AcDbLine
10
-15.832142834791112
20
44.974998494982721
30
0
11
-5.310714263362537
21
44.974998494982721
31
0
0
LINE
5
103
100
AcDbEntity
8
0
100
AcDbLine
10
-5.310714263362537
20
44.974998494982721
30
0
11
-5.310714263362537
21
42.024998494982704
31
0
0
LINE
5
104
100
AcDbEntity
8
0
100
AcDbLine
10
15.832142879494601
20
42.024998494982704
30
0
11
5.3107143080660313
21
42.024998494982704
31
0
0
LINE
5
105
100
AcDbEntity
8
0
100
AcDbLine
10
5.3107143080660313
20
42.024998494982704
30
0
11
5.3107143080660313
21
44.974998494982721
31
0
0
LINE
5
106
100
AcDbEntity
8
0
100
AcDbLine
10
5.3107143080660313
20
44.974998494982721
30
0
11
15.832142879494601
21
44.974998494982721
31
0
0
LINE
5
107
100
AcDbEntity
8
0
100
AcDbLine
10
15.832142879494601
20
44.974998494982721
30
0
11
15.832142879494601
21
42.024998494982704
31
0
0
LINE
5
108
100
AcDbEntity
8
0
100
AcDbLine
10
-15.832142879494599
20
-30.975000461936002
30
0
11
-15.832142879494599
21
-28.025000461936003
31
0
0
LINE
5
109
100
AcDbEntity
8
0
100
AcDbLine
10
-15.832142879494599
20
-28.025000461936003
30
0
11
-5.3107143080660286
21
-28.025000461936003
31
0
0
LINE
5
110
100
AcDbEntity
8
0
100
AcDbLine
10
-5.3107143080660286
20
-28.025000461936003
30
0
11
-5.3107143080660313
21
-30.975000461936002
31
0
0
LINE
5
111
100
AcDbEntity
8
0
100
AcDbLine
10
-5.3107143080660313
20
-30.975000461936002
30
0
11
-15.832142879494599
21
-30.975000461936002
31
0
0
LINE
5
112
100
AcDbEntity
8
0
100
AcDbLine
10
15.832142834791107
20
-30.975000461936002
30
0
11
5.3107142633625415
21
-30.975000461936002
31
0
0
LINE
5
113
100
AcDbEntity
8
0
100
AcDbLine
10
5.3107142633625415
20
-30.975000461936002
30
0
11
5.3107142633625415
21
-28.025000461936003
31
0
0
LINE
5
114
100
AcDbEntity
8
0
100
AcDbLine
10
5.3107142633625415
20
-28.025000461936003
30
0
11
15.832142834791112
21
-28.025000461936003
31
0
0
LINE
5
115
100
AcDbEntity
8
0
100
AcDbLine
10
15.832142834791112
20
-28.025000461936003
30
0
11
15.832142834791107
21
-30.975000461936002
31
0
0
LINE
5
116
100
AcDbEntity
8
0
100
AcDbLine
10
37.025000573694712
20
44.975000675697189
30
0
11
37.025000573694712
21
51.975000774860391
31
0
0
LINE
5
117
100
AcDbEntity
8
0
100
AcDbLine
10
37.025000573694712
20
51.975000774860391
30
0
11
40.025000618398195
21
51.975000774860391
31
0
0
LINE
5
118
100
AcDbEntity
8
0
100
AcDbLine
10
40.025000618398195
20
51.975000774860391
30
0
11
40.025000618398195
21
62.025000923872007
31
0
0
LINE
5
119
100
AcDbEntity
8
0
100
AcDbLine
10
40.025000618398195
20
62.025000923872007
30
0
11
37.025000573694712
21
62.025000923872007
31
0
0
LINE
5
120
100
AcDbEntity
8
0
100
AcDbLine
10
37.025000573694712
20
62.025000923872007
30
0
11
37.025000573694712
21
68.025001013278967
31
0
0
LINE
5
121
100
AcDbEntity
8
0
100
AcDbLine
10
37.025000573694712
20
68.025001013278967
30
0
11
-37.025000573694705
21
68.025001013278967
31
0
0
LINE
5
122
100
AcDbEntity
8
0
100
AcDbLine
10
-37.025000573694705
20
68.025001013278967
30
0
11
-37.025000573694705
21
62.025000923872007
31
0
0
LINE
5
123
100
AcDbEntity
8
0
100
AcDbLine
10
-37.025000573694705
20
62.025000923872007
30
0
11
-40.024999133114889
21
62.025000923872007
31
0
0
LINE
5
124
100
AcDbEntity
8
0
100
AcDbLine
10
-40.024999133114889
20
62.025000923872007
30
0
11
-40.024999133114889
21
51.975001293088368
31
0
0
LINE
5
125
100
AcDbEntity
8
0
100
AcDbLine
10
-40.024999133114889
20
51.975001293088368
30
0
11
-37.024999138259879
21
51.975000675697046
31
0
0
LINE
5
126
100
AcDbEntity
8
0
100
AcDbLine
10
-37.024999138259879
20
51.975000675697046
30
0
11
-37.025000578839631
21
44.975000675697189
31
0
0
LINE
5
127
100
AcDbEntity
8
0
100
AcDbLine
10
-37.025000578839631
20
44.975000675697189
30
0
11
-26.453571406219687
21
44.974998500127654
31
0
0
LINE
5
128
100
AcDbEntity
8
0
100
AcDbLine
10
-26.453571406219687
20
44.974998500127654
30
0
11
-26.453571406219684
21
42.024998491880901
31
0
0
LINE
5
129
100
AcDbEntity
8
0
100
AcDbLine
10
-26.453571406219684
20
42.024998491880901
30
0
11
-40.025000022351733
21
42.024996808047575
31
0
0
LINE
5
130
100
AcDbEntity
8
0
100
AcDbLine
10
-40.025000022351733
20
42.024996808047575
30
0
11
-40.025000022351733
21
31.974996811153389
31
0
0
LINE
5
131
100
AcDbEntity
8
0
100
AcDbLine
10
-40.025000022351733
20
31.974996811153389
30
0
11
-37.02500002235174
21
31.974996811150973
31
0
0
LINE
5
132
100
AcDbEntity
8
0
100
AcDbLine
10
-37.02500002235174
20
31.974996811150973
30
0
11
-37.02500002235174
21
22.024996811148423
31
0
0
LINE
5
133
100
AcDbEntity
8
0
100
AcDbLine
10
-37.02500002235174
20
22.024996811148423
30
0
11
-40.025000022351733
21
22.024996811148423
31
0
0
LINE
5
134
100
AcDbEntity
8
0
100
AcDbLine
10
-40.025000022351733
20
22.024996811148423
30
0
11
-40.025000022351733
21
11.974996811149996
31
0
0
LINE
5
135
100
AcDbEntity
8
0
100
AcDbLine
10
-40.025000022351733
20
11.974996811149996
30
0
11
-37.02500002235174
21
11.974996811149996
31
0
0
LINE
5
136
100
AcDbEntity
8
0
100
AcDbLine
10
-37.02500002235174
20
11.974996811149996
30
0
11
-37.02500002235174
21
2.0249968111493821
31
0
0
LINE
5
137
100
AcDbEntity
8
0
100
AcDbLine
10
-37.02500002235174
20
2.0249968111493821
30
0
11
-40.025000022351733
21
2.0249968111493821
31
0
0
LINE
5
138
100
AcDbEntity
8
0
100
AcDbLine
10
-40.025000022351733
20
2.0249968111493821
30
0
11
-40.025000022351733
21
-8.0250031888466111
31
0
0
LINE
5
139
100
AcDbEntity
8
0
100
AcDbLine
10
-40.025000022351733
20
-8.0250031888466111
30
0
11
-37.02500002235174
21
-8.025003188849027
31
0
0
LINE
5
140
100
AcDbEntity
8
0
100
AcDbLine
10
-37.02500002235174
20
-8.025003188849027
30
0
11
-37.02500002235174
21
-17.975003188851577
31
0
0
LINE
5
141
100
AcDbEntity
8
0
100
AcDbLine
10
-37.02500002235174
20
-17.975003188851577
30
0
11
-40.025000022351733
21
-17.975003188851577
31
0
0
LINE
5
142
100
AcDbEntity
8
0
100
AcDbLine
10
-40.025000022351733
20
-17.975003188851577
30
0
11
-40.025000022351733
21
-28.025003188850004
31
0
0
LINE
5
143
100
AcDbEntity
8
0
100
AcDbLine
10
-40.025000022351733
20
-28.025003188850004
30
0
11
-37.000000022351742
21
-28.025003188849897
31
0
0
LINE
5
144
100
AcDbEntity
8
0
100
AcDbLine
10
-37.000000022351742
20
-28.025003188849897
30
0
11
-26.453571450923178
21
-28.025000468384782
31
0
0
LINE
5
145
100
AcDbEntity
8
0
100
AcDbLine
10
-26.453571450923178
20
-28.025000468384782
30
0
11
-26.453571450923171
21
-30.975000461936002
31
0
0
LINE
5
146
100
AcDbEntity
8
0
100
AcDbLine
10
-26.453571450923171
20
-30.975000461936002
30
0
11
-37.025000573694705
21
-30.975000461936002
31
0
0
LINE
5
147
100
AcDbEntity
8
0
100
AcDbLine
10
-37.025000573694705
20
-30.975000461936002
30
0
11
-37.025000573694705
21
-37.975000566244134
31
0
0
LINE
5
148
100
AcDbEntity
8
0
100
AcDbLine
10
-37.025000573694705
20
-37.975000566244134
30
0
11
-40.025000618398181
21
-37.975000566244134
31
0
0
LINE
5
149
100
AcDbEntity
8
0
100
AcDbLine
10
-40.025000618398181
20
-37.975000566244134
30
0
11
-40.025000618398181
21
-48.025000715255729
31
0
0
LINE
5
150
100
AcDbEntity
8
0
100
AcDbLine
10
-40.025000618398181
20
-48.025000715255729
30
0
11
-37.025000573694705
21
-48.025000715255729
31
0
0
LINE
5
151
100
AcDbEntity
8
0
100
AcDbLine
10
-37.025000573694705
20
-48.025000715255729
30
0
11
-37.025000573694705
21
-57.975000864267358
31
0
0
LINE
5
152
100
AcDbEntity
8
0
100
AcDbLine
10
-37.025000573694705
20
-57.975000864267358
30
0
11
-40.025000618398181
21
-57.975000864267358
31
0
0
LINE
5
153
100
AcDbEntity
8
0
100
AcDbLine
10
-40.025000618398181
20
-57.975000864267358
30
0
11
-40.025000618398181
21
-68.025001013278953
31
0
0
LINE
5
154
100
AcDbEntity
8
0
100
AcDbLine
10
-40.025000618398181
20
-68.025001013278953
30
0
11
40.025000573694705
21
-68.025001013278953
31
0
0
LINE
5
155
100
AcDbEntity
8
0
100
AcDbLine
10
40.025000573694705
20
-68.025001013278953
30
0
11
40.025000573694705
21
-57.975000864267358
31
0
0
LINE
5
156
100
AcDbEntity
8
0
100
AcDbLine
10
40.025000573694705
20
-57.975000864267358
30
0
11
37.025000528991228
21
-57.975000864267358
31
0
0
LINE
5
157
100
AcDbEntity
8
0
100
AcDbLine
10
37.025000528991228
20
-57.975000864267358
30
0
11
37.025000528991228
21
-48.025000715255729
31
0
0
LINE
5
158
100
AcDbEntity
8
0
100
AcDbLine
10
37.025000528991228
20
-48.025000715255729
30
0
11
40.025000573694705
21
-48.025000715255729
31
0
0
LINE
5
159
100
AcDbEntity
8
0
100
AcDbLine
10
40.025000573694705
20
-48.025000715255729
30
0
11
40.025000573694705
21
-37.975000566244134
31
0
0
LINE
5
160
100
AcDbEntity
8
0
100
AcDbLine
10
40.025000573694705
20
-37.975000566244134
30
0
11
37.025000573694712
21
-37.975000566244134
31
0
0
LINE
5
161
100
AcDbEntity
8
0
100
AcDbLine
10
37.025000573694712
20
-37.975000566244134
30
0
11
37.025000573694712
21
-30.975000461936002
31
0
0
LINE
5
162
100
AcDbEntity
8
0
100
AcDbLine
10
37.025000573694712
20
-30.975000461936002
30
0
11
26.453571406219684
21
-30.975000461936002
31
0
0
LINE
5
163
100
AcDbEntity
8
0
100
AcDbLine
10
26.453571406219684
20
-30.975000461936002
30
0
11
26.453571406219684
21
-28.025000461936003
31
0
0
LINE
5
164
100
AcDbEntity
8
0
100
AcDbLine
10
26.453571406219684
20
-28.025000461936003
30
0
11
36.999999977648265
21
-28.02500046193601
31
0
0
LINE
5
165
100
AcDbEntity
8
0
100
AcDbLine
10
36.999999977648265
20
-28.02500046193601
30
0
11
40.024999977648257
21
-28.025003211574287
31
0
0
LINE
5
166
100
AcDbEntity
8
0
100
AcDbLine
10
40.024999977648257
20
-28.025003211574287
30
0
11
40.024999977648257
21
-17.975003188848167
31
0
0
LINE
5
167
100
AcDbEntity
8
0
100
AcDbLine
10
40.024999977648257
20
-17.975003188848167
30
0
11
37.024999977648264
21
-17.975003188851542
31
0
0
LINE
5
168
100
AcDbEntity
8
0
100
AcDbLine
10
37.024999977648264
20
-17.975003188851542
30
0
11
37.024999977648264
21
-8.0250031888490447
31
0
0
LINE
5
169
100
AcDbEntity
8
0
100
AcDbLine
10
37.024999977648264
20
-8.0250031888490447
30
0
11
40.024999977648257
21
-8.0250031888490447
31
0
0
LINE
5
170
100
AcDbEntity
8
0
100
AcDbLine
10
40.024999977648257
20
-8.0250031888490447
30
0
11
40.024999977648264
21
2.0249968111550309
31
0
0
LINE
5
171
100
AcDbEntity
8
0
100
AcDbLine
10
40.024999977648264
20
2.0249968111550309
30
0
11
37.024999977648264
21
2.0249968111494354
31
0
0
LINE
5
172
100
AcDbEntity
8
0
100
AcDbLine
10
37.024999977648264
20
2.0249968111494354
30
0
11
37.024999977648264
21
11.974996811149996
31
0
0
LINE
5
173
100
AcDbEntity
8
0
100
AcDbLine
10
37.024999977648264
20
11.974996811149996
30
0
11
40.024999977648257
21
11.974996811149996
31
0
0
LINE
5
174
100
AcDbEntity
8
0
100
AcDbLine
10
40.024999977648257
20
11.974996811149996
30
0
11
40.024999977648257
21
22.024996811151833
31
0
0
LINE
5
175
100
AcDbEntity
8
0
100
AcDbLine
10
40.024999977648257
20
22.024996811151833
30
0
11
37.024999977648264
21
22.024996811148458
31
0
0
LINE
5
176
100
AcDbEntity
8
0
100
AcDbLine
10
37.024999977648264
20
22.024996811148458
30
0
11
37.024999977648264
21
31.974996811150955
31
0
0
LINE
5
177
100
AcDbEntity
8
0
100
AcDbLine
10
37.024999977648264
20
31.974996811150955
30
0
11
40.024999977648257
21
31.974996811150955
31
0
0
LINE
5
178
100
AcDbEntity
8
0
100
AcDbLine
10
40.024999977648257
20
31.974996811150955
30
0
11
40.024999977648264
21
42.024996797123073
31
0
0
LINE
5
179
100
AcDbEntity
8
0
100
AcDbLine
10
40.024999977648264
20
42.024996797123073
30
0
11
37.000000036383646
21
42.024998494982704
31
0
0
LINE
5
180
100
AcDbEntity
8
0
100
AcDbLine
10
37.000000036383646
20
42.024998494982704
30
0
11
26.453571450923171
21
42.024998494982704
31
0
0
LINE
5
181
100
AcDbEntity
8
0
100
AcDbLine
10
26.453571450923171
20
42.024998494982704
30
0
11
26.453571450923171
21
44.974998500127654
31
0
0
LINE
5
182
100
AcDbEntity
8
0
100
AcDbLine
10
26.453571450923171
20
44.974998500127654
30
0
11
37.025000573694712
21
44.975000675697189
31
0
0
ENDSEC
0
SECTION
2
OBJECTS
0
DICTIONARY
5
C
100
AcDbDictionary
3
ACAD_GROUP
350
D
3
ACAD_MLINESTYLE
350
17
0
DICTIONARY
5
D
100
AcDbDictionary
0
DICTIONARY
5
1A
330
C
100
AcDbDictionary
0
DICTIONARY
5
17
100
AcDbDictionary
0
ENDSEC
0
EOF
