0
SECTION
2
HEADER
9
$INSUNITS
70
4
9
$ACADVER
1
AC1014
9
$HANDSEED
5
FFFF
0
ENDSEC
0
SECTION
2
TABLES
0
TABLE
2
VPORT
5
8
100
AcDbSymbolTable
0
ENDTAB
0
TABLE
2
LTYPE
5
5
100
AcDbSymbolTable
0
LTYPE
5
14
100
AcDbSymbolTableRecord
100
AcDbLinetypeTableRecord
2
BYBLOCK
70
0
0
LTYPE
5
15
100
AcDbSymbolTableRecord
100
AcDbLinetypeTableRecord
2
BYLAYER
70
0
0
ENDTAB
0
TABLE
2
LAYER
5
2
100
AcDbSymbolTable
70
2
0
LAYER
5
50
100
AcDbSymbolTableRecord
100
AcDbLayerTableRecord
2
0
70
0
6
CONTINUOUS
0
ENDTAB
0
TABLE
2
STYLE
5
3
100
AcDbSymbolTable
70
1
0
STYLE
5
11
100
AcDbSymbolTableRecord
100
AcDbTextStyleTableRecord
2
STANDARD
70
0
0
ENDTAB
0
TABLE
2
VIEW
5
6
100
AcDbSymbolTable
70
0
0
ENDTAB
0
TABLE
2
UCS
5
7
100
AcDbSymbolTable
70
0
0
ENDTAB
0
TABLE
2
APPID
5
9
100
AcDbSymbolTable
70
2
0
APPID
5
12
100
AcDbSymbolTableRecord
100
AcDbRegAppTableRecord
2
ACAD
70
0
0
ENDTAB
0
TABLE
2
DIMSTYLE
5
A
100
AcDbSymbolTable
70
1
0
ENDTAB
0
TABLE
2
BLOCK_RECORD
5
1
100
AcDbSymbolTable
70
1
0
BLOCK_RECORD
5
1F
100
AcDbSymbolTableRecord
100
AcDbBlockTableRecord
2
*MODEL_SPACE
0
BLOCK_RECORD
5
1B
100
AcDbSymbolTableRecord
100
AcDbBlockTableRecord
2
*PAPER_SPACE
0
ENDTAB
0
ENDSEC
0
SECTION
2
BLOCKS
0
BLOCK
5
20
100
AcDbEntity
100
AcDbBlockBegin
2
*MODEL_SPACE
0
ENDBLK
5
21
100
AcDbEntity
100
AcDbBlockEnd
0
BLOCK
5
1C
100
AcDbEntity
100
AcDbBlockBegin
2
*PAPER_SPACE
0
ENDBLK
5
1D
100
AcDbEntity
100
AcDbBlockEnd
0
ENDSEC
0
SECTION
2
ENTITIES
0
LINE
5
100
100
AcDbEntity
8
0
100
AcDbLine
10
66.009796955329648
20
26.251726385507411
30
0
11
67.730526264382789
21
23.794270252640437
31
0
0
LINE
5
101
100
AcDbEntity
8
0
100
AcDbLine
10
67.730526264382789
20
23.794270252640437
30
0
11
59.579963423707333
21
18.087184710947525
31
0
0
LINE
5
102
100
AcDbEntity
8
0
100
AcDbLine
10
59.579963423707333
20
18.087184710947525
30
0
11
57.8592341146542
21
20.544640843814513
31
0
0
LINE
5
103
100
AcDbEntity
8
0
100
AcDbLine
10
57.8592341146542
20
20.544640843814513
30
0
11
49.626756069549828
21
14.7801976584865
31
0
0
LINE
5
104
100
AcDbEntity
8
0
100
AcDbLine
10
49.626756069549828
20
14.7801976584865
30
0
11
51.347485378602968
21
12.322741525619531
31
0
0
LINE
5
105
100
AcDbEntity
8
0
100
AcDbLine
10
51.347485378602968
20
12.322741525619531
30
0
11
43.176443736820261
21
6.6013165730178391
31
0
0
ARC
5
106
100
AcDbEntity
8
0
100
AcDbCircle
10
1.3322676295501878e-14
20
68.26366863397071
30
0
40
75.27583247927393
210
0
220
0
230
1
100
AcDbArc
50
235.00000000000003
51
305
0
LINE
5
107
100
AcDbEntity
8
0
100
AcDbLine
10
-43.176443736820183
20
6.6013165730177548
30
0
11
-51.347485378602912
21
12.322741525619506
31
0
0
LINE
5
108
100
AcDbEntity
8
0
100
AcDbLine
10
-51.347485378602912
20
12.322741525619506
30
0
11
-49.626756069549778
21
14.780197658486479
31
0
0
LINE
5
109
100
AcDbEntity
8
0
100
AcDbLine
10
-49.626756069549778
20
14.780197658486479
30
0
11
-57.859234114654143
21
20.544640843814488
31
0
0
LINE
5
110
100
AcDbEntity
8
0
100
AcDbLine
10
-57.859234114654143
20
20.544640843814488
30
0
11
-59.579963423707277
21
18.087184710947515
31
0
0
LINE
5
111
100
AcDbEntity
8
0
100
AcDbLine
10
-59.579963423707277
20
18.087184710947515
30
0
11
-67.730526264382746
21
23.79427025264043
31
0
0
LINE
5
112
100
AcDbEntity
8
0
100
AcDbLine
10
-67.730526264382746
20
23.79427025264043
30
0
11
-66.00979695532962
21
26.251726385507396
31
0
0
LINE
5
113
100
AcDbEntity
8
0
100
AcDbLine
10
-66.00979695532962
20
26.251726385507396
30
0
11
-74.242275000433978
21
32.016169570835416
31
0
0
LINE
5
114
100
AcDbEntity
8
0
100
AcDbLine
10
-74.242275000433978
20
32.016169570835416
30
0
11
-75.963004309487104
21
29.558713437968443
31
0
0
LINE
5
115
100
AcDbEntity
8
0
100
AcDbLine
10
-75.963004309487104
20
29.558713437968443
30
0
11
-84.113567150162595
21
35.265798979661334
31
0
0
LINE
5
116
100
AcDbEntity
8
0
100
AcDbLine
10
-84.113567150162595
20
35.265798979661334
30
0
11
-82.392837841109454
21
37.723255112528307
31
0
0
LINE
5
117
100
AcDbEntity
8
0
100
AcDbLine
10
-82.392837841109454
20
37.723255112528307
30
0
11
-90.625315886213826
21
43.487698297856319
31
0
0
LINE
5
118
100
AcDbEntity
8
0
100
AcDbLine
10
-90.625315886213826
20
43.487698297856319
30
0
11
-92.346045195266967
21
41.030242164989346
31
0
0
LINE
5
119
100
AcDbEntity
8
0
100
AcDbLine
10
-92.346045195266967
20
41.030242164989346
30
0
11
-100.53756563815688
21
46.766006528499815
31
0
0
LINE
5
120
100
AcDbEntity
8
0
100
AcDbLine
10
-100.53756563815688
20
46.766006528499815
30
0
11
-103.43412664172965
21
42.629288704840427
31
0
0
LINE
5
121
100
AcDbEntity
8
0
100
AcDbLine
10
-103.43412664172965
20
42.629288704840427
30
0
11
-100.97667050886265
21
40.908559395787293
31
0
0
LINE
5
122
100
AcDbEntity
8
0
100
AcDbLine
10
-100.97667050886265
20
40.908559395787293
30
0
11
-106.68375605055559
21
32.757996555111795
31
0
0
LINE
5
123
100
AcDbEntity
8
0
100
AcDbLine
10
-106.68375605055559
20
32.757996555111795
30
0
11
-109.14121218342257
21
34.478725864164943
31
0
0
LINE
5
124
100
AcDbEntity
8
0
100
AcDbLine
10
-109.14121218342257
20
34.478725864164943
30
0
11
-112.03777318699534
21
30.342008040505554
31
0
0
LINE
5
125
100
AcDbEntity
8
0
100
AcDbLine
10
-112.03777318699534
20
30.342008040505554
30
0
11
-103.8462527441054
21
24.606243676995085
31
0
0
LINE
5
126
100
AcDbEntity
8
0
100
AcDbLine
10
-103.8462527441054
20
24.606243676995085
30
0
11
-105.56698205315855
21
22.148787544128091
31
0
0
LINE
5
127
100
AcDbEntity
8
0
100
AcDbLine
10
-105.56698205315855
20
22.148787544128091
30
0
11
-97.334504008054168
21
16.384344358800078
31
0
0
LINE
5
128
100
AcDbEntity
8
0
100
AcDbLine
10
-97.334504008054168
20
16.384344358800078
30
0
11
-95.613774699001027
21
18.841800491667058
31
0
0
LINE
5
129
100
AcDbEntity
8
0
100
AcDbLine
10
-95.613774699001027
20
18.841800491667058
30
0
11
-87.463211858325579
21
13.134714949974157
31
0
0
LINE
5
130
100
AcDbEntity
8
0
100
AcDbLine
10
-87.463211858325579
20
13.134714949974157
30
0
11
-89.18394116737872
21
10.677258817107171
31
0
0
LINE
5
131
100
AcDbEntity
8
0
100
AcDbLine
10
-89.18394116737872
20
10.677258817107171
30
0
11
-80.951463122274347
21
4.9128156317791705
31
0
0
LINE
5
132
100
AcDbEntity
8
0
100
AcDbLine
10
-80.951463122274347
20
4.9128156317791705
30
0
11
-79.230733813221221
21
7.3702717646461302
31
0
0
LINE
5
133
100
AcDbEntity
8
0
100
AcDbLine
10
-79.230733813221221
20
7.3702717646461302
30
0
11
-71.080170972545758
21
1.6631862229532279
31
0
0
LINE
5
134
100
AcDbEntity
8
0
100
AcDbLine
10
-71.080170972545758
20
1.6631862229532279
30
0
11
-72.800900281598899
21
-0.79426990991374513
31
0
0
LINE
5
135
100
AcDbEntity
8
0
100
AcDbLine
10
-72.800900281598899
20
-0.79426990991374513
30
0
11
-64.568422236494541
21
-6.5587130952417594
31
0
0
LINE
5
136
100
AcDbEntity
8
0
100
AcDbLine
10
-64.568422236494541
20
-6.5587130952417594
30
0
11
-62.8476929274414
21
-4.1012569623747819
31
0
0
LINE
5
137
100
AcDbEntity
8
0
100
AcDbLine
10
-62.8476929274414
20
-4.1012569623747819
30
0
11
-54.6766512856587
21
-9.8226819149764673
31
0
0
ARC
5
138
100
AcDbEntity
8
0
100
AcDbCircle
10
-78.41964209584269
20
-43.731186914637163
30
0
40
41.394641246476532
210
-0
220
0
230
1
100
AcDbArc
50
-1.4787793578184993e-06
51
55.000000000000085
0
LINE
5
139
100
AcDbEntity
8
0
100
AcDbLine
10
-37.025000849366172
20
-43.731187973117862
30
0
11
-37.025000849366172
21
-46.756188316483829
31
0
0
LINE
5
140
100
AcDbEntity
8
0
100
AcDbLine
10
-37.025000849366172
20
-46.756188316483843
30
0
11
-26.403572277937602
21
-46.756188316483843
31
0
0
LINE
5
141
100
AcDbEntity
8
0
100
AcDbLine
10
-26.403572277937602
20
-46.756188316483843
30
0
11
-26.403572277937602
21
-43.756187973757136
31
0
0
LINE
5
142
100
AcDbEntity
8
0
100
AcDbLine
10
-26.403572277937602
20
-43.756187973757136
30
0
11
-15.88214370650903
21
-43.756187973757136
31
0
0
LINE
5
143
100
AcDbEntity
8
0
100
AcDbLine
10
-15.88214370650903
20
-43.756187973757136
30
0
11
-15.88214370650903
21
-46.756188316483843
31
0
0
LINE
5
144
100
AcDbEntity
8
0
100
AcDbLine
10
-15.88214370650903
20
-46.756188316483843
30
0
11
-5.2607151350804582
21
-46.756188316483843
31
0
0
LINE
5
145
100
AcDbEntity
8
0
100
AcDbLine
10
-5.2607151350804582
20
-46.756188316483843
30
0
11
-5.2607151350804582
21
-43.756187973757136
31
0
0
LINE
5
146
100
AcDbEntity
8
0
100
AcDbLine
10
-5.2607151350804582
20
-43.756187973757136
30
0
11
5.2607134363481167
21
-43.756187973757136
31
0
0
LINE
5
147
100
AcDbEntity
8
0
100
AcDbLine
10
5.2607134363481167
20
-43.756187973757136
30
0
11
5.2607134363481167
21
-46.756188316483843
31
0
0
LINE
5
148
100
AcDbEntity
8
0
100
AcDbLine
10
5.2607134363481167
20
-46.756188316483843
30
0
11
15.882142007776686
21
-46.756188316483843
31
0
0
LINE
5
149
100
AcDbEntity
8
0
100
AcDbLine
10
15.882142007776686
20
-46.756188316483843
30
0
11
15.882142007776686
21
-43.756187973757136
31
0
0
LINE
5
150
100
AcDbEntity
8
0
100
AcDbLine
10
15.882142007776686
20
-43.756187973757136
30
0
11
26.403570579205255
21
-43.756187973757136
31
0
0
LINE
5
151
100
AcDbEntity
8
0
100
AcDbLine
10
26.403570579205255
20
-43.756187973757136
30
0
11
26.403570579205255
21
-46.756188316483843
31
0
0
LINE
5
152
100
AcDbEntity
8
0
100
AcDbLine
10
26.403570579205255
20
-46.756188316483843
30
0
11
37.02500025331976
21
-46.756188316483843
31
0
0
LINE
5
153
100
AcDbEntity
8
0
100
AcDbLine
10
37.02500025331976
20
-46.756188316483843
30
0
11
37.02500025331976
21
-43.73118797375713
31
0
0
ARC
5
154
100
AcDbEntity
8
0
100
AcDbCircle
10
78.419642732613028
20
-43.731187973757145
30
0
40
41.394642479293267
210
0
220
0
230
1
100
AcDbArc
50
124.99999988120965
51
180
0
LINE
5
155
100
AcDbEntity
8
0
100
AcDbLine
10
54.676651285616281
20
-9.8226819150061786
30
0
11
62.847692927441443
21
-4.101256962374773
31
0
0
LINE
5
156
100
AcDbEntity
8
0
100
AcDbLine
10
62.847692927441443
20
-4.101256962374773
30
0
11
64.568422236494584
21
-6.5587130952417461
31
0
0
LINE
5
157
100
AcDbEntity
8
0
100
AcDbLine
10
64.568422236494584
20
-6.5587130952417461
30
0
11
72.800900281598928
21
-0.79426990991372737
31
0
0
LINE
5
158
100
AcDbEntity
8
0
100
AcDbLine
10
72.800900281598928
20
-0.79426990991372737
30
0
11
71.080170972545801
21
1.6631862229532635
31
0
0
LINE
5
159
100
AcDbEntity
8
0
100
AcDbLine
10
71.080170972545801
20
1.6631862229532635
30
0
11
79.230733813221264
21
7.3702717646461657
31
0
0
LINE
5
160
100
AcDbEntity
8
0
100
AcDbLine
10
79.230733813221264
20
7.3702717646461657
30
0
11
80.951463122274419
21
4.9128156317791971
31
0
0
LINE
5
161
100
AcDbEntity
8
0
100
AcDbLine
10
80.951463122274419
20
4.9128156317791971
30
0
11
89.183941167378791
21
10.677258817107219
31
0
0
LINE
5
162
100
AcDbEntity
8
0
100
AcDbLine
10
89.183941167378791
20
10.677258817107219
30
0
11
87.463211858325636
21
13.134714949974175
31
0
0
LINE
5
163
100
AcDbEntity
8
0
100
AcDbLine
10
87.463211858325636
20
13.134714949974175
30
0
11
95.61377469900107
21
18.841800491667094
31
0
0
LINE
5
164
100
AcDbEntity
8
0
100
AcDbLine
10
95.61377469900107
20
18.841800491667094
30
0
11
97.334504008054225
21
16.384344358800131
31
0
0
LINE
5
165
100
AcDbEntity
8
0
100
AcDbLine
10
97.334504008054225
20
16.384344358800131
30
0
11
105.5669820531586
21
22.148787544128137
31
0
0
LINE
5
166
100
AcDbEntity
8
0
100
AcDbLine
10
105.5669820531586
20
22.148787544128137
30
0
11
103.84625274410544
21
24.60624367699511
31
0
0
LINE
5
167
100
AcDbEntity
8
0
100
AcDbLine
10
103.84625274410544
20
24.60624367699511
30
0
11
112.03777318699535
21
30.342008040505561
31
0
0
LINE
5
168
100
AcDbEntity
8
0
100
AcDbLine
10
112.03777318699535
20
30.342008040505561
30
0
11
109.14121218342261
21
34.47872586416495
31
0
0
LINE
5
169
100
AcDbEntity
8
0
100
AcDbLine
10
109.14121218342261
20
34.47872586416495
30
0
11
106.6837560505556
21
32.757996555111795
31
0
0
LINE
5
170
100
AcDbEntity
8
0
100
AcDbLine
10
106.6837560505556
20
32.757996555111795
30
0
11
100.97667050886267
21
40.908559395787307
31
0
0
LINE
5
171
100
AcDbEntity
8
0
100
AcDbLine
10
100.97667050886267
20
40.908559395787307
30
0
11
103.43412664172968
21
42.629288704840427
31
0
0
LINE
5
172
100
AcDbEntity
8
0
100
AcDbLine
10
103.43412664172968
20
42.629288704840427
30
0
11
100.53756563815691
21
46.766006528499837
31
0
0
LINE
5
173
100
AcDbEntity
8
0
100
AcDbLine
10
100.53756563815691
20
46.766006528499837
30
0
11
92.346045195266996
21
41.030242164989367
31
0
0
LINE
5
174
100
AcDbEntity
8
0
100
AcDbLine
10
92.346045195266996
20
41.030242164989367
30
0
11
90.625315886213841
21
43.487698297856355
31
0
0
LINE
5
175
100
AcDbEntity
8
0
100
AcDbLine
10
90.625315886213841
20
43.487698297856355
30
0
11
82.392837841109497
21
37.723255112528321
31
0
0
LINE
5
176
100
AcDbEntity
8
0
100
AcDbLine
10
82.392837841109497
20
37.723255112528321
30
0
11
84.113567150162609
21
35.265798979661334
31
0
0
LINE
5
177
100
AcDbEntity
8
0
100
AcDbLine
10
84.113567150162609
20
35.265798979661334
30
0
11
75.963004309487147
21
29.558713437968436
31
0
0
LINE
5
178
100
AcDbEntity
8
0
100
AcDbLine
10
75.963004309487147
20
29.558713437968436
30
0
11
74.242275000434006
21
32.016169570835416
31
0
0
LINE
5
179
100
AcDbEntity
8
0
100
AcDbLine
10
74.242275000434006
20
32.016169570835416
30
0
11
66.009796955329648
21
26.251726385507411
31
0
0
ENDSEC
0
SECTION
2
OBJECTS
0
DICTIONARY
5
C
100
AcDbDictionary
3
ACAD_GROUP
350
D
3
ACAD_MLINESTYLE
350
17
0
DICTIONARY
5
D
100
AcDbDictionary
0
DICTIONARY
5
1A
330
C
100
AcDbDictionary
0
DICTIONARY
5
17
100
AcDbDictionary
0
ENDSEC
0
EOF
