0
SECTION
2
HEADER
9
$INSUNITS
70
4
9
$ACADVER
1
AC1014
9
$HANDSEED
5
FFFF
0
ENDSEC
0
SECTION
2
TABLES
0
TABLE
2
VPORT
5
8
100
AcDbSymbolTable
0
ENDTAB
0
TABLE
2
LTYPE
5
5
100
AcDbSymbolTable
0
LTYPE
5
14
100
AcDbSymbolTableRecord
100
AcDbLinetypeTableRecord
2
BYBLOCK
70
0
0
LTYPE
5
15
100
AcDbSymbolTableRecord
100
AcDbLinetypeTableRecord
2
BYLAYER
70
0
0
ENDTAB
0
TABLE
2
LAYER
5
2
100
AcDbSymbolTable
70
2
0
LAYER
5
50
100
AcDbSymbolTableRecord
100
AcDbLayerTableRecord
2
0
70
0
6
CONTINUOUS
0
ENDTAB
0
TABLE
2
STYLE
5
3
100
AcDbSymbolTable
70
1
0
STYLE
5
11
100
AcDbSymbolTableRecord
100
AcDbTextStyleTableRecord
2
STANDARD
70
0
0
ENDTAB
0
TABLE
2
VIEW
5
6
100
AcDbSymbolTable
70
0
0
ENDTAB
0
TABLE
2
UCS
5
7
100
AcDbSymbolTable
70
0
0
ENDTAB
0
TABLE
2
APPID
5
9
100
AcDbSymbolTable
70
2
0
APPID
5
12
100
AcDbSymbolTableRecord
100
AcDbRegAppTableRecord
2
ACAD
70
0
0
ENDTAB
0
TABLE
2
DIMSTYLE
5
A
100
AcDbSymbolTable
70
1
0
ENDTAB
0
TABLE
2
BLOCK_RECORD
5
1
100
AcDbSymbolTable
70
1
0
BLOCK_RECORD
5
1F
100
AcDbSymbolTableRecord
100
AcDbBlockTableRecord
2
*MODEL_SPACE
0
BLOCK_RECORD
5
1B
100
AcDbSymbolTableRecord
100
AcDbBlockTableRecord
2
*PAPER_SPACE
0
ENDTAB
0
ENDSEC
0
SECTION
2
BLOCKS
0
BLOCK
5
20
100
AcDbEntity
100
AcDbBlockBegin
2
*MODEL_SPACE
0
ENDBLK
5
21
100
AcDbEntity
100
AcDbBlockEnd
0
BLOCK
5
1C
100
AcDbEntity
100
AcDbBlockBegin
2
*PAPER_SPACE
0
ENDBLK
5
1D
100
AcDbEntity
100
AcDbBlockEnd
0
ENDSEC
0
SECTION
2
ENTITIES
0
LINE
5
100
100
AcDbEntity
8
0
100
AcDbLine
10
-40.024999999999991
20
35.025000000002478
30
0
11
-40.024999999999991
21
24.974999999996843
31
0
0
LINE
5
101
100
AcDbEntity
8
0
100
AcDbLine
10
-40.024999999999991
20
24.974999999996843
30
0
11
-37.024999999999999
21
24.975000000003345
31
0
0
LINE
5
102
100
AcDbEntity
8
0
100
AcDbLine
10
-37.024999999999999
20
24.975000000003345
30
0
11
-37.024999999999999
21
15.024999999998485
31
0
0
LINE
5
103
100
AcDbEntity
8
0
100
AcDbLine
10
-37.024999999999999
20
15.024999999998485
30
0
11
-40.024999999999991
21
15.02500000000186
31
0
0
LINE
5
104
100
AcDbEntity
8
0
100
AcDbLine
10
-40.024999999999991
20
15.02500000000186
30
0
11
-40.024999999999991
21
4.9750000000000227
31
0
0
LINE
5
105
100
AcDbEntity
8
0
100
AcDbLine
10
-40.024999999999991
20
4.9750000000000227
30
0
11
-37.024999999999999
21
4.9750000000000227
31
0
0
LINE
5
106
100
AcDbEntity
8
0
100
AcDbLine
10
-37.024999999999999
20
4.9750000000000227
30
0
11
-37.024999999999999
21
-4.9750000000030603
31
0
0
LINE
5
107
100
AcDbEntity
8
0
100
AcDbLine
10
-37.024999999999999
20
-4.9750000000030603
30
0
11
-40.024999999999991
21
-4.9749999999974648
31
0
0
LINE
5
108
100
AcDbEntity
8
0
100
AcDbLine
10
-40.024999999999991
20
-4.9749999999974648
30
0
11
-40.024999999999991
21
-15.025000000003157
31
0
0
LINE
5
109
100
AcDbEntity
8
0
100
AcDbLine
10
-40.024999999999991
20
-15.025000000003157
30
0
11
-37.024999999999999
21
-15.024999999996673
31
0
0
LINE
5
110
100
AcDbEntity
8
0
100
AcDbLine
10
-37.024999999999999
20
-15.024999999996673
30
0
11
-37.024999999999999
21
-24.975000000001515
31
0
0
LINE
5
111
100
AcDbEntity
8
0
100
AcDbLine
10
-37.024999999999999
20
-24.975000000001515
30
0
11
-40.024999999999991
21
-24.97499999999814
31
0
0
LINE
5
112
100
AcDbEntity
8
0
100
AcDbLine
10
-40.024999999999991
20
-24.97499999999814
30
0
11
-40.024999999999991
21
-35.02500087515439
31
0
0
LINE
5
113
100
AcDbEntity
8
0
100
AcDbLine
10
-40.024999999999991
20
-35.02500087515439
30
0
11
-36.999999984146818
21
-35.024998956918694
31
0
0
LINE
5
114
100
AcDbEntity
8
0
100
AcDbLine
10
-36.999999984146818
20
-35.024998956918694
30
0
11
-26.453571428571429
21
-35.024998956918701
31
0
0
LINE
5
115
100
AcDbEntity
8
0
100
AcDbLine
10
-26.453571428571429
20
-35.024998956918701
30
0
11
-26.453571428571429
21
-38.024998956918701
31
0
0
LINE
5
116
100
AcDbEntity
8
0
100
AcDbLine
10
-26.453571428571429
20
-38.024998956918701
30
0
11
-15.832142857142866
21
-38.024998956918701
31
0
0
LINE
5
117
100
AcDbEntity
8
0
100
AcDbLine
10
-15.832142857142866
20
-38.024998956918701
30
0
11
-15.832142857142866
21
-35.024998956918701
31
0
0
LINE
5
118
100
AcDbEntity
8
0
100
AcDbLine
10
-15.832142857142866
20
-35.024998956918701
30
0
11
-5.3107142857142868
21
-35.024998956918701
31
0
0
LINE
5
119
100
AcDbEntity
8
0
100
AcDbLine
10
-5.3107142857142868
20
-35.024998956918701
30
0
11
-5.3107142857142886
21
-38.024998956918701
31
0
0
LINE
5
120
100
AcDbEntity
8
0
100
AcDbLine
10
-5.3107142857142886
20
-38.024998956918701
30
0
11
5.3107142857142753
21
-38.024998956918701
31
0
0
LINE
5
121
100
AcDbEntity
8
0
100
AcDbLine
10
5.3107142857142753
20
-38.024998956918701
30
0
11
5.3107142857142753
21
-35.024998956918701
31
0
0
LINE
5
122
100
AcDbEntity
8
0
100
AcDbLine
10
5.3107142857142753
20
-35.024998956918701
30
0
11
15.832142857142856
21
-35.024998956918701
31
0
0
LINE
5
123
100
AcDbEntity
8
0
100
AcDbLine
10
15.832142857142856
20
-35.024998956918701
30
0
11
15.83214285714285
21
-38.024998956918701
31
0
0
LINE
5
124
100
AcDbEntity
8
0
100
AcDbLine
10
15.83214285714285
20
-38.024998956918701
30
0
11
26.453571428571419
21
-38.024998956918701
31
0
0
LINE
5
125
100
AcDbEntity
8
0
100
AcDbLine
10
26.453571428571419
20
-38.024998956918701
30
0
11
26.453571428571419
21
-35.024998956918701
31
0
0
LINE
5
126
100
AcDbEntity
8
0
100
AcDbLine
10
26.453571428571419
20
-35.024998956918701
30
0
11
37
21
-35.024998956918701
31
0
0
LINE
5
127
100
AcDbEntity
8
0
100
AcDbLine
10
37
20
-35.024998956918701
30
0
11
40.024999999999991
21
-35.02500087515439
31
0
0
LINE
5
128
100
AcDbEntity
8
0
100
AcDbLine
10
40.024999999999991
20
-35.02500087515439
30
0
11
40.024999999999984
21
-24.97500000000155
31
0
0
LINE
5
129
100
AcDbEntity
8
0
100
AcDbLine
10
40.024999999999984
20
-24.97500000000155
30
0
11
37.024999999999999
21
-24.97500000000155
31
0
0
LINE
5
130
100
AcDbEntity
8
0
100
AcDbLine
10
37.024999999999999
20
-24.97500000000155
30
0
11
37.024999999999999
21
-15.02500000000305
31
0
0
LINE
5
131
100
AcDbEntity
8
0
100
AcDbLine
10
37.024999999999999
20
-15.02500000000305
30
0
11
40.024999999999991
21
-15.024999999996567
31
0
0
LINE
5
132
100
AcDbEntity
8
0
100
AcDbLine
10
40.024999999999991
20
-15.024999999996567
30
0
11
40.024999999999984
21
-4.9750000000031136
31
0
0
LINE
5
133
100
AcDbEntity
8
0
100
AcDbLine
10
40.024999999999984
20
-4.9750000000031136
30
0
11
37.024999999999999
21
-4.9750000000031136
31
0
0
LINE
5
134
100
AcDbEntity
8
0
100
AcDbLine
10
37.024999999999999
20
-4.9750000000031136
30
0
11
37.024999999999999
21
4.9750000000000227
31
0
0
LINE
5
135
100
AcDbEntity
8
0
100
AcDbLine
10
37.024999999999999
20
4.9750000000000227
30
0
11
40.024999999999991
21
4.9750000000000227
31
0
0
LINE
5
136
100
AcDbEntity
8
0
100
AcDbLine
10
40.024999999999991
20
4.9750000000000227
30
0
11
40.024999999999984
21
15.02499999999845
31
0
0
LINE
5
137
100
AcDbEntity
8
0
100
AcDbLine
10
40.024999999999984
20
15.02499999999845
30
0
11
37.024999999999999
21
15.02499999999845
31
0
0
LINE
5
138
100
AcDbEntity
8
0
100
AcDbLine
10
37.024999999999999
20
15.02499999999845
30
0
11
37.024999999999999
21
24.97499999999695
31
0
0
LINE
5
139
100
AcDbEntity
8
0
100
AcDbLine
10
37.024999999999999
20
24.97499999999695
30
0
11
40.024999999999991
21
24.975000000003451
31
0
0
LINE
5
140
100
AcDbEntity
8
0
100
AcDbLine
10
40.024999999999991
20
24.975000000003451
30
0
11
40.024999999999991
21
35.025000000002478
31
0
0
LINE
5
141
100
AcDbEntity
8
0
100
AcDbLine
10
40.024999999999991
20
35.025000000002478
30
0
11
37.000000044703462
21
35.024999999999991
31
0
0
LINE
5
142
100
AcDbEntity
8
0
100
AcDbLine
10
37.000000044703462
20
35.024999999999991
30
0
11
26.453571473274906
21
35.024999999999991
31
0
0
LINE
5
143
100
AcDbEntity
8
0
100
AcDbLine
10
26.453571473274906
20
35.024999999999991
30
0
11
26.453571473274906
21
38.025000000000006
31
0
0
LINE
5
144
100
AcDbEntity
8
0
100
AcDbLine
10
26.453571473274906
20
38.025000000000006
30
0
11
15.832142901846344
21
38.025000000000006
31
0
0
LINE
5
145
100
AcDbEntity
8
0
100
AcDbLine
10
15.832142901846344
20
38.025000000000006
30
0
11
15.832142901846344
21
35.024999999999991
31
0
0
LINE
5
146
100
AcDbEntity
8
0
100
AcDbLine
10
15.832142901846344
20
35.024999999999991
30
0
11
5.3107143304177651
21
35.024999999999991
31
0
0
LINE
5
147
100
AcDbEntity
8
0
100
AcDbLine
10
5.3107143304177651
20
35.024999999999991
30
0
11
5.3107143304177651
21
38.025000000000006
31
0
0
LINE
5
148
100
AcDbEntity
8
0
100
AcDbLine
10
5.3107143304177651
20
38.025000000000006
30
0
11
-5.3107142410107944
21
38.025000000000006
31
0
0
LINE
5
149
100
AcDbEntity
8
0
100
AcDbLine
10
-5.3107142410107944
20
38.025000000000006
30
0
11
-5.3107142410107944
21
35.024999999999991
31
0
0
LINE
5
150
100
AcDbEntity
8
0
100
AcDbLine
10
-5.3107142410107944
20
35.024999999999991
30
0
11
-15.832142812439379
21
35.024999999999991
31
0
0
LINE
5
151
100
AcDbEntity
8
0
100
AcDbLine
10
-15.832142812439379
20
35.024999999999991
30
0
11
-15.832142812439379
21
38.025000000000006
31
0
0
LINE
5
152
100
AcDbEntity
8
0
100
AcDbLine
10
-15.832142812439379
20
38.025000000000006
30
0
11
-26.453571383867942
21
38.025000000000006
31
0
0
LINE
5
153
100
AcDbEntity
8
0
100
AcDbLine
10
-26.453571383867942
20
38.025000000000006
30
0
11
-26.453571383867942
21
35.024999999999991
31
0
0
LINE
5
154
100
AcDbEntity
8
0
100
AcDbLine
10
-26.453571383867942
20
35.024999999999991
30
0
11
-37
21
35.024999999999991
31
0
0
LINE
5
155
100
AcDbEntity
8
0
100
AcDbLine
10
-37
20
35.024999999999991
30
0
11
-40.024999999999991
21
35.025000000002478
31
0
0
ENDSEC
0
SECTION
2
OBJECTS
0
DICTIONARY
5
C
100
AcDbDictionary
3
ACAD_GROUP
350
D
3
ACAD_MLINESTYLE
350
17
0
DICTIONARY
5
D
100
AcDbDictionary
0
DICTIONARY
5
1A
330
C
100
AcDbDictionary
0
DICTIONARY
5
17
100
AcDbDictionary
0
ENDSEC
0
EOF
