0
SECTION
2
HEADER
9
$INSUNITS
70
4
9
$ACADVER
1
AC1014
9
$HANDSEED
5
FFFF
0
ENDSEC
0
SECTION
2
TABLES
0
TABLE
2
VPORT
5
8
100
AcDbSymbolTable
0
ENDTAB
0
TABLE
2
LTYPE
5
5
100
AcDbSymbolTable
0
LTYPE
5
14
100
AcDbSymbolTableRecord
100
AcDbLinetypeTableRecord
2
BYBLOCK
70
0
0
LTYPE
5
15
100
AcDbSymbolTableRecord
100
AcDbLinetypeTableRecord
2
BYLAYER
70
0
0
ENDTAB
0
TABLE
2
LAYER
5
2
100
AcDbSymbolTable
70
2
0
LAYER
5
50
100
AcDbSymbolTableRecord
100
AcDbLayerTableRecord
2
0
70
0
6
CONTINUOUS
0
ENDTAB
0
TABLE
2
STYLE
5
3
100
AcDbSymbolTable
70
1
0
STYLE
5
11
100
AcDbSymbolTableRecord
100
AcDbTextStyleTableRecord
2
STANDARD
70
0
0
ENDTAB
0
TABLE
2
VIEW
5
6
100
AcDbSymbolTable
70
0
0
ENDTAB
0
TABLE
2
UCS
5
7
100
AcDbSymbolTable
70
0
0
ENDTAB
0
TABLE
2
APPID
5
9
100
AcDbSymbolTable
70
2
0
APPID
5
12
100
AcDbSymbolTableRecord
100
AcDbRegAppTableRecord
2
ACAD
70
0
0
ENDTAB
0
TABLE
2
DIMSTYLE
5
A
100
AcDbSymbolTable
70
1
0
ENDTAB
0
TABLE
2
BLOCK_RECORD
5
1
100
AcDbSymbolTable
70
1
0
BLOCK_RECORD
5
1F
100
AcDbSymbolTableRecord
100
AcDbBlockTableRecord
2
*MODEL_SPACE
0
BLOCK_RECORD
5
1B
100
AcDbSymbolTableRecord
100
AcDbBlockTableRecord
2
*PAPER_SPACE
0
ENDTAB
0
ENDSEC
0
SECTION
2
BLOCKS
0
BLOCK
5
20
100
AcDbEntity
100
AcDbBlockBegin
2
*MODEL_SPACE
0
ENDBLK
5
21
100
AcDbEntity
100
AcDbBlockEnd
0
BLOCK
5
1C
100
AcDbEntity
100
AcDbBlockBegin
2
*PAPER_SPACE
0
ENDBLK
5
1D
100
AcDbEntity
100
AcDbBlockEnd
0
ENDSEC
0
SECTION
2
ENTITIES
0
LINE
5
100
100
AcDbEntity
8
0
100
AcDbLine
10
29.525000439584254
20
-58.025000767409821
30
0
11
29.525000439584254
21
-47.975000618398198
31
0
0
LINE
5
101
100
AcDbEntity
8
0
100
AcDbLine
10
29.525000439584254
20
-47.975000618398198
30
0
11
26.52500039488077
21
-47.975000618398198
31
0
0
LINE
5
102
100
AcDbEntity
8
0
100
AcDbLine
10
26.52500039488077
20
-47.975000618398198
30
0
11
26.52500039488077
21
-38.025000469386598
31
0
0
LINE
5
103
100
AcDbEntity
8
0
100
AcDbLine
10
26.52500039488077
20
-38.025000469386598
30
0
11
29.525000439584254
21
-38.025000469386598
31
0
0
LINE
5
104
100
AcDbEntity
8
0
100
AcDbLine
10
29.525000439584254
20
-38.025000469386598
30
0
11
29.525000439584254
21
-27.975000320374974
31
0
0
LINE
5
105
100
AcDbEntity
8
0
100
AcDbLine
10
29.525000439584254
20
-27.975000320374974
30
0
11
26.52500039488077
21
-27.975000320374974
31
0
0
LINE
5
106
100
AcDbEntity
8
0
100
AcDbLine
10
26.52500039488077
20
-27.975000320374974
30
0
11
26.52500039488077
21
-24.975000275671491
31
0
0
LINE
5
107
100
AcDbEntity
8
0
100
AcDbLine
10
26.52500039488077
20
-24.975000275671491
30
0
11
19.475000290572645
21
-24.975000275671491
31
0
0
LINE
5
108
100
AcDbEntity
8
0
100
AcDbLine
10
19.475000290572645
20
-24.975000275671491
30
0
11
19.475000290572645
21
-27.975000320374974
31
0
0
LINE
5
109
100
AcDbEntity
8
0
100
AcDbLine
10
19.475000290572645
20
-27.975000320374974
30
0
11
9.5250001415610299
21
-27.975000320374974
31
0
0
LINE
5
110
100
AcDbEntity
8
0
100
AcDbLine
10
9.5250001415610299
20
-27.975000320374974
30
0
11
9.5250001415610299
21
-24.9750002688004
31
0
0
LINE
5
111
100
AcDbEntity
8
0
100
AcDbLine
10
9.5250001415610299
20
-24.9750002688004
30
0
11
0.52501126367414219
21
-24.975002742391538
31
0
0
LINE
5
112
100
AcDbEntity
8
0
100
AcDbLine
10
0.52501126367414219
20
-24.975002742391538
30
0
11
0.52500567896223149
21
-15.025002735232249
31
0
0
LINE
5
113
100
AcDbEntity
8
0
100
AcDbLine
10
0.52500567896223149
20
-15.025002735232249
30
0
11
3.525005678961759
21
-15.025001051399514
31
0
0
LINE
5
114
100
AcDbEntity
8
0
100
AcDbLine
10
3.525005678961759
20
-15.025001051399514
30
0
11
3.5250000381221192
21
-4.9750010514010867
31
0
0
LINE
5
115
100
AcDbEntity
8
0
100
AcDbLine
10
3.5250000381221192
20
-4.9750010514010867
30
0
11
0.52500733472125027
21
-4.9750027352297366
31
0
0
LINE
5
116
100
AcDbEntity
8
0
100
AcDbLine
10
0.52500733472125027
20
-4.9750027352297366
30
0
11
0.52500175001771066
21
4.9749972647686924
31
0
0
LINE
5
117
100
AcDbEntity
8
0
100
AcDbLine
10
0.52500175001771066
20
4.9749972647686924
30
0
11
3.5250017121310462
21
4.9749989485988877
31
0
0
LINE
5
118
100
AcDbEntity
8
0
100
AcDbLine
10
3.5250017121310462
20
4.9749989485988877
30
0
11
3.5250113015599327
21
15.024998948602057
31
0
0
LINE
5
119
100
AcDbEntity
8
0
100
AcDbLine
10
3.5250113015599327
20
15.024998948602057
30
0
11
0.52501126367413775
21
15.024997264769304
31
0
0
LINE
5
120
100
AcDbEntity
8
0
100
AcDbLine
10
0.52501126367413775
20
15.024997264769304
30
0
11
0.52500567896223149
21
24.974997264767751
31
0
0
LINE
5
121
100
AcDbEntity
8
0
100
AcDbLine
10
0.52500567896223149
20
24.974997264767751
30
0
11
3.525005678961759
21
24.974998948600486
31
0
0
LINE
5
122
100
AcDbEntity
8
0
100
AcDbLine
10
3.525005678961759
20
24.974998948600486
30
0
11
3.5250000381221192
21
35.024998948598913
31
0
0
LINE
5
123
100
AcDbEntity
8
0
100
AcDbLine
10
3.5250000381221192
20
35.024998948598913
30
0
11
0.52500733472125027
21
35.024997264770263
31
0
0
LINE
5
124
100
AcDbEntity
8
0
100
AcDbLine
10
0.52500733472125027
20
35.024997264770263
30
0
11
0.52500175001771066
21
44.974997264768689
31
0
0
LINE
5
125
100
AcDbEntity
8
0
100
AcDbLine
10
0.52500175001771066
20
44.974997264768689
30
0
11
3.5250017500172381
21
44.974998948598909
31
0
0
LINE
5
126
100
AcDbEntity
8
0
100
AcDbLine
10
3.5250017500172381
20
44.974998948598909
30
0
11
3.5250000661859859
21
47.975000812113286
31
0
0
LINE
5
127
100
AcDbEntity
8
0
100
AcDbLine
10
3.5250000661859859
20
47.975000812113286
30
0
11
11.475001013278984
21
47.975000812113286
31
0
0
LINE
5
128
100
AcDbEntity
8
0
100
AcDbLine
10
11.475001013278984
20
47.975000812113286
30
0
11
11.475001013278984
21
44.974998934566983
31
0
0
LINE
5
129
100
AcDbEntity
8
0
100
AcDbLine
10
11.475001013278984
20
44.974998934566983
30
0
11
19.525000290572642
21
44.974998934566983
31
0
0
LINE
5
130
100
AcDbEntity
8
0
100
AcDbLine
10
19.525000290572642
20
44.974998934566983
30
0
11
19.525000290572642
21
55.025000916421405
31
0
0
LINE
5
131
100
AcDbEntity
8
0
100
AcDbLine
10
19.525000290572642
20
55.025000916421405
30
0
11
16.525000290572642
21
55.025000916421405
31
0
0
LINE
5
132
100
AcDbEntity
8
0
100
AcDbLine
10
16.525000290572642
20
55.025000916421405
30
0
11
16.525000290572642
21
64.975001065433005
31
0
0
LINE
5
133
100
AcDbEntity
8
0
100
AcDbLine
10
16.525000290572642
20
64.975001065433005
30
0
11
19.525000290572642
21
64.975001065433005
31
0
0
LINE
5
134
100
AcDbEntity
8
0
100
AcDbLine
10
19.525000290572642
20
64.975001065433005
30
0
11
19.525000290572642
21
75.025001214677488
31
0
0
LINE
5
135
100
AcDbEntity
8
0
100
AcDbLine
10
19.525000290572642
20
75.025001214677488
30
0
11
11.525000171363352
21
75.025001140171682
31
0
0
LINE
5
136
100
AcDbEntity
8
0
100
AcDbLine
10
11.525000171363352
20
75.025001140171682
30
0
11
11.525000171363352
21
78.025001065433045
31
0
0
LINE
5
137
100
AcDbEntity
8
0
100
AcDbLine
10
11.525000171363352
20
78.025001065433045
30
0
11
3.4750000239815559
21
78.025001065433045
31
0
0
LINE
5
138
100
AcDbEntity
8
0
100
AcDbLine
10
3.4750000239815559
20
78.025001065433045
30
0
11
3.4750000519213309
21
75.02499065603638
31
0
0
ARC
5
139
100
AcDbEntity
8
0
100
AcDbCircle
10
3.5000017359853253
20
44.999998934566975
30
0
40
30.025002130866074
210
0
220
0
230
1
100
AcDbArc
50
90.047709943096294
51
179.95229324142201
0
LINE
5
140
100
AcDbEntity
8
0
100
AcDbLine
10
-26.524989986873653
20
45.024998949834334
30
0
11
-29.52500043958425
21
45.025000782683492
31
0
0
LINE
5
141
100
AcDbEntity
8
0
100
AcDbLine
10
-29.52500043958425
20
45.025000782683492
30
0
11
-29.52500043958425
21
34.975000618398191
31
0
0
LINE
5
142
100
AcDbEntity
8
0
100
AcDbLine
10
-29.52500043958425
20
34.975000618398191
30
0
11
-26.525000394880767
21
34.975000618398191
31
0
0
LINE
5
143
100
AcDbEntity
8
0
100
AcDbLine
10
-26.525000394880767
20
34.975000618398191
30
0
11
-26.525000394880767
21
25.025000469386569
31
0
0
LINE
5
144
100
AcDbEntity
8
0
100
AcDbLine
10
-26.525000394880767
20
25.025000469386569
30
0
11
-29.52500043958425
21
25.025000469386569
31
0
0
LINE
5
145
100
AcDbEntity
8
0
100
AcDbLine
10
-29.52500043958425
20
25.025000469386569
30
0
11
-29.52500043958425
21
14.975000320374967
31
0
0
LINE
5
146
100
AcDbEntity
8
0
100
AcDbLine
10
-29.52500043958425
20
14.975000320374967
30
0
11
-26.525000394880767
21
14.975000320374967
31
0
0
LINE
5
147
100
AcDbEntity
8
0
100
AcDbLine
10
-26.525000394880767
20
14.975000320374967
30
0
11
-26.525000394880767
21
5.0250001713633452
31
0
0
LINE
5
148
100
AcDbEntity
8
0
100
AcDbLine
10
-26.525000394880767
20
5.0250001713633452
30
0
11
-29.52500043958425
21
5.0250001713633452
31
0
0
LINE
5
149
100
AcDbEntity
8
0
100
AcDbLine
10
-29.52500043958425
20
5.0250001713633452
30
0
11
-29.52500043958425
21
-5.0249999776482568
31
0
0
LINE
5
150
100
AcDbEntity
8
0
100
AcDbLine
10
-29.52500043958425
20
-5.0249999776482568
30
0
11
-26.525000394880767
21
-5.0249999776482568
31
0
0
LINE
5
151
100
AcDbEntity
8
0
100
AcDbLine
10
-26.525000394880767
20
-5.0249999776482568
30
0
11
-26.525000394880767
21
-14.975000126659879
31
0
0
LINE
5
152
100
AcDbEntity
8
0
100
AcDbLine
10
-26.525000394880767
20
-14.975000126659879
30
0
11
-29.52500043958425
21
-14.975000126659879
31
0
0
LINE
5
153
100
AcDbEntity
8
0
100
AcDbLine
10
-29.52500043958425
20
-14.975000126659879
30
0
11
-29.52500043958425
21
-25.025000275671498
31
0
0
LINE
5
154
100
AcDbEntity
8
0
100
AcDbLine
10
-29.52500043958425
20
-25.025000275671498
30
0
11
-26.525000394880767
21
-25.025000275671498
31
0
0
LINE
5
155
100
AcDbEntity
8
0
100
AcDbLine
10
-26.525000394880767
20
-25.025000275671498
30
0
11
-26.525000394880767
21
-34.975000424683103
31
0
0
LINE
5
156
100
AcDbEntity
8
0
100
AcDbLine
10
-26.525000394880767
20
-34.975000424683103
30
0
11
-29.52500043958425
21
-34.975000424683103
31
0
0
LINE
5
157
100
AcDbEntity
8
0
100
AcDbLine
10
-29.52500043958425
20
-34.975000424683103
30
0
11
-29.52500043958425
21
-45.025001065433031
31
0
0
LINE
5
158
100
AcDbEntity
8
0
100
AcDbLine
10
-29.52500043958425
20
-45.025001065433031
30
0
11
-26.524989986885608
21
-45.025001065433031
31
0
0
ARC
5
159
100
AcDbEntity
8
0
100
AcDbCircle
10
3.4999995604157608
20
-45.000001065433032
30
0
40
30.024999955296536
210
0
220
0
230
1
100
AcDbArc
50
180.04770673290099
51
270.00000167908814
0
LINE
5
160
100
AcDbEntity
8
0
100
AcDbLine
10
3.5000004403168905
20
-75.025001020729562
30
0
11
6.475011665119017
21
-75.025001020726449
31
0
0
LINE
5
161
100
AcDbEntity
8
0
100
AcDbLine
10
6.475011665119017
20
-75.025001020726449
30
0
11
6.475011665119017
21
-78.025001065429905
31
0
0
LINE
5
162
100
AcDbEntity
8
0
100
AcDbLine
10
6.475011665119017
20
-78.025001065429905
30
0
11
29.525000439584254
21
-78.025001065433045
31
0
0
LINE
5
163
100
AcDbEntity
8
0
100
AcDbLine
10
29.525000439584254
20
-78.025001065433045
30
0
11
29.525000439584254
21
-67.975000916421422
31
0
0
LINE
5
164
100
AcDbEntity
8
0
100
AcDbLine
10
29.525000439584254
20
-67.975000916421422
30
0
11
26.52500039488077
21
-67.975000916421422
31
0
0
LINE
5
165
100
AcDbEntity
8
0
100
AcDbLine
10
26.52500039488077
20
-67.975000916421422
30
0
11
26.52500039488077
21
-58.025000767409807
31
0
0
LINE
5
166
100
AcDbEntity
8
0
100
AcDbLine
10
26.52500039488077
20
-58.025000767409821
30
0
11
29.525000439584254
21
-58.025000767409821
31
0
0
ENDSEC
0
SECTION
2
OBJECTS
0
DICTIONARY
5
C
100
AcDbDictionary
3
ACAD_GROUP
350
D
3
ACAD_MLINESTYLE
350
17
0
DICTIONARY
5
D
100
AcDbDictionary
0
DICTIONARY
5
1A
330
C
100
AcDbDictionary
0
DICTIONARY
5
17
100
AcDbDictionary
0
ENDSEC
0
EOF
