0
SECTION
2
HEADER
9
$INSUNITS
70
4
9
$ACADVER
1
AC1014
9
$HANDSEED
5
FFFF
0
ENDSEC
0
SECTION
2
TABLES
0
TABLE
2
VPORT
5
8
100
AcDbSymbolTable
0
ENDTAB
0
TABLE
2
LTYPE
5
5
100
AcDbSymbolTable
0
LTYPE
5
14
100
AcDbSymbolTableRecord
100
AcDbLinetypeTableRecord
2
BYBLOCK
70
0
0
LTYPE
5
15
100
AcDbSymbolTableRecord
100
AcDbLinetypeTableRecord
2
BYLAYER
70
0
0
ENDTAB
0
TABLE
2
LAYER
5
2
100
AcDbSymbolTable
70
2
0
LAYER
5
50
100
AcDbSymbolTableRecord
100
AcDbLayerTableRecord
2
0
70
0
6
CONTINUOUS
0
ENDTAB
0
TABLE
2
STYLE
5
3
100
AcDbSymbolTable
70
1
0
STYLE
5
11
100
AcDbSymbolTableRecord
100
AcDbTextStyleTableRecord
2
STANDARD
70
0
0
ENDTAB
0
TABLE
2
VIEW
5
6
100
AcDbSymbolTable
70
0
0
ENDTAB
0
TABLE
2
UCS
5
7
100
AcDbSymbolTable
70
0
0
ENDTAB
0
TABLE
2
APPID
5
9
100
AcDbSymbolTable
70
2
0
APPID
5
12
100
AcDbSymbolTableRecord
100
AcDbRegAppTableRecord
2
ACAD
70
0
0
ENDTAB
0
TABLE
2
DIMSTYLE
5
A
100
AcDbSymbolTable
70
1
0
ENDTAB
0
TABLE
2
BLOCK_RECORD
5
1
100
AcDbSymbolTable
70
1
0
BLOCK_RECORD
5
1F
100
AcDbSymbolTableRecord
100
AcDbBlockTableRecord
2
*MODEL_SPACE
0
BLOCK_RECORD
5
1B
100
AcDbSymbolTableRecord
100
AcDbBlockTableRecord
2
*PAPER_SPACE
0
ENDTAB
0
ENDSEC
0
SECTION
2
BLOCKS
0
BLOCK
5
20
100
AcDbEntity
100
AcDbBlockBegin
2
*MODEL_SPACE
0
ENDBLK
5
21
100
AcDbEntity
100
AcDbBlockEnd
0
BLOCK
5
1C
100
AcDbEntity
100
AcDbBlockBegin
2
*PAPER_SPACE
0
ENDBLK
5
1D
100
AcDbEntity
100
AcDbBlockEnd
0
ENDSEC
0
SECTION
2
ENTITIES
0
LINE
5
100
100
AcDbEntity
8
0
100
AcDbLine
10
-5.3107148370572643
20
-25.025000171363345
30
0
11
-5.3107148370572643
21
-28.025000171363352
31
0
0
LINE
5
101
100
AcDbEntity
8
0
100
AcDbLine
10
-5.3107148370572643
20
-28.025000171363352
30
0
11
5.310713734371304
21
-28.025000171363352
31
0
0
LINE
5
102
100
AcDbEntity
8
0
100
AcDbLine
10
5.310713734371304
20
-28.025000171363352
30
0
11
5.310713734371304
21
-25.025000171363345
31
0
0
LINE
5
103
100
AcDbEntity
8
0
100
AcDbLine
10
5.310713734371304
20
-25.025000171363345
30
0
11
15.832142305799874
21
-25.025000171363345
31
0
0
LINE
5
104
100
AcDbEntity
8
0
100
AcDbLine
10
15.832142305799874
20
-25.025000171363345
30
0
11
15.832142305799874
21
-28.025000171363352
31
0
0
LINE
5
105
100
AcDbEntity
8
0
100
AcDbLine
10
15.832142305799874
20
-28.025000171363352
30
0
11
26.453570877228444
21
-28.025000171363352
31
0
0
LINE
5
106
100
AcDbEntity
8
0
100
AcDbLine
10
26.453570877228444
20
-28.025000171363352
30
0
11
26.453570877228444
21
-25.025000171363345
31
0
0
LINE
5
107
100
AcDbEntity
8
0
100
AcDbLine
10
26.453570877228444
20
-25.025000171363345
30
0
11
37.024999448816686
21
-25.025000171363345
31
0
0
LINE
5
108
100
AcDbEntity
8
0
100
AcDbLine
10
37.024999448816686
20
-25.025000171363345
30
0
11
37.024999404113203
21
-18.024998189512029
31
0
0
LINE
5
109
100
AcDbEntity
8
0
100
AcDbLine
10
37.024999404113203
20
-18.024998189512029
30
0
11
40.024999403953537
21
-18.024998189512029
31
0
0
LINE
5
110
100
AcDbEntity
8
0
100
AcDbLine
10
40.024999403953537
20
-18.024998189512029
30
0
11
40.024999403953537
21
-7.9749980405004095
31
0
0
LINE
5
111
100
AcDbEntity
8
0
100
AcDbLine
10
40.024999403953537
20
-7.9749980405004095
30
0
11
37.024999403953544
21
-7.9749980405004095
31
0
0
LINE
5
112
100
AcDbEntity
8
0
100
AcDbLine
10
37.024999403953544
20
-7.9749980405004095
30
0
11
37.024999403953544
21
2.0250021152735442
31
0
0
LINE
5
113
100
AcDbEntity
8
0
100
AcDbLine
10
37.024999403953544
20
2.0250021152735442
30
0
11
28.596427975382127
21
2.0249998353990151
31
0
0
LINE
5
114
100
AcDbEntity
8
0
100
AcDbLine
10
28.596427975382127
20
2.0249998353990151
30
0
11
28.596427975382127
21
4.9749998286366548
31
0
0
LINE
5
115
100
AcDbEntity
8
0
100
AcDbLine
10
28.596427975382127
20
4.9749998286366548
30
0
11
40.025104447823267
21
4.9749998286366548
31
0
0
ARC
5
116
100
AcDbEntity
8
0
100
AcDbCircle
10
42.999999448657285
20
4.9999998286366321
30
0
40
2.9750000447037239
210
0
220
-0
230
1
100
AcDbArc
50
89.999978086481605
51
180.48148279841305
0
ARC
5
117
100
AcDbEntity
8
0
100
AcDbCircle
10
43.000000596046448
20
18.000000022351763
30
0
40
10.025000149011625
210
0
220
0
230
1
100
AcDbArc
50
-90.000000054647217
51
89.999999945352826
0
LINE
5
118
100
AcDbEntity
8
0
100
AcDbLine
10
43.000000596046448
20
28.025000171363388
30
0
11
-43.000000596046462
21
28.025000171363388
31
0
0
ARC
5
119
100
AcDbEntity
8
0
100
AcDbCircle
10
-43.000000596046455
20
18.000000022351763
30
0
40
10.025000149011625
210
0
220
0
230
1
100
AcDbArc
50
90.000000000000043
51
270.00000000000006
0
ARC
5
120
100
AcDbEntity
8
0
100
AcDbCircle
10
-43.000000596046462
20
4.9999998733401796
30
0
40
2.9750000000000103
210
-0
220
0
230
1
100
AcDbArc
50
-0.48148366662813663
51
89.99999999999973
0
LINE
5
121
100
AcDbEntity
8
0
100
AcDbLine
10
-40.025105640293425
20
4.9749998286366548
30
0
11
-28.596429167475023
21
4.9749998286366548
31
0
0
LINE
5
122
100
AcDbEntity
8
0
100
AcDbLine
10
-28.596429167475023
20
4.9749998286366548
30
0
11
-28.596429167475023
21
2.0249998286366733
31
0
0
LINE
5
123
100
AcDbEntity
8
0
100
AcDbLine
10
-28.596429167475023
20
2.0249998286366733
30
0
11
-37.025000596046461
21
2.0249998286366377
31
0
0
LINE
5
124
100
AcDbEntity
8
0
100
AcDbLine
10
-37.025000596046461
20
2.0249998286366377
30
0
11
-37.025000596046461
21
-7.9749980405004095
31
0
0
LINE
5
125
100
AcDbEntity
8
0
100
AcDbLine
10
-37.025000596046461
20
-7.9749980405004095
30
0
11
-40.025000596046453
21
-7.9749980405004095
31
0
0
LINE
5
126
100
AcDbEntity
8
0
100
AcDbLine
10
-40.025000596046453
20
-7.9749980405004095
30
0
11
-40.025000596046453
21
-18.024998189512029
31
0
0
LINE
5
127
100
AcDbEntity
8
0
100
AcDbLine
10
-40.025000596046453
20
-18.024998189512029
30
0
11
-37.025000595886802
21
-18.024998189512029
31
0
0
LINE
5
128
100
AcDbEntity
8
0
100
AcDbLine
10
-37.025000595886802
20
-18.024998189512029
30
0
11
-37.025000551183318
21
-25.025000171363345
31
0
0
LINE
5
129
100
AcDbEntity
8
0
100
AcDbLine
10
-37.025000551183318
20
-25.025000171363345
30
0
11
-26.453571979914404
21
-25.025000171363345
31
0
0
LINE
5
130
100
AcDbEntity
8
0
100
AcDbLine
10
-26.453571979914404
20
-25.025000171363345
30
0
11
-26.453571979914404
21
-28.025000171363352
31
0
0
LINE
5
131
100
AcDbEntity
8
0
100
AcDbLine
10
-26.453571979914404
20
-28.025000171363352
30
0
11
-15.832143408485834
21
-28.025000171363352
31
0
0
LINE
5
132
100
AcDbEntity
8
0
100
AcDbLine
10
-15.832143408485834
20
-28.025000171363352
30
0
11
-15.832143408485834
21
-25.025000171363345
31
0
0
LINE
5
133
100
AcDbEntity
8
0
100
AcDbLine
10
-15.832143408485834
20
-25.025000171363345
30
0
11
-5.3107148370572643
21
-25.025000171363345
31
0
0
LINE
5
134
100
AcDbEntity
8
0
100
AcDbLine
10
43.000000596046448
20
14.024999962747131
30
0
11
-43.000000596046462
21
14.024999962747131
31
0
0
ARC
5
135
100
AcDbEntity
8
0
100
AcDbCircle
10
-43.000000596046455
20
18.000000022351763
30
0
40
3.975000059604632
210
-0
220
0
230
1
100
AcDbArc
50
90
51
270
0
LINE
5
136
100
AcDbEntity
8
0
100
AcDbLine
10
-43.000000596046455
20
21.975000081956395
30
0
11
43.000000596046455
21
21.975000081956395
31
0
0
ARC
5
137
100
AcDbEntity
8
0
100
AcDbCircle
10
43.000000596046448
20
18.000000022351763
30
0
40
3.975000059604632
210
-0
220
0
230
1
100
AcDbArc
50
-90
51
90
0
LINE
5
138
100
AcDbEntity
8
0
100
AcDbLine
10
5.7392851182392635
20
2.0249998286366733
30
0
11
5.7392851182392635
21
4.9749998286366548
31
0
0
LINE
5
139
100
AcDbEntity
8
0
100
AcDbLine
10
5.7392851182392635
20
4.9749998286366548
30
0
11
17.117856546810696
21
4.9749998286366548
31
0
0
LINE
5
140
100
AcDbEntity
8
0
100
AcDbLine
10
17.117856546810696
20
4.9749998286366548
30
0
11
17.117856546810696
21
2.0249998286366733
31
0
0
LINE
5
141
100
AcDbEntity
8
0
100
AcDbLine
10
17.117856546810696
20
2.0249998286366733
30
0
11
5.7392851182392635
21
2.0249998286366733
31
0
0
LINE
5
142
100
AcDbEntity
8
0
100
AcDbLine
10
-17.117857738903595
20
2.0249998286366733
30
0
11
-17.117857738903595
21
4.9749998286366548
31
0
0
LINE
5
143
100
AcDbEntity
8
0
100
AcDbLine
10
-17.117857738903595
20
4.9749998286366548
30
0
11
-5.7392863103321679
21
4.9749998286366548
31
0
0
LINE
5
144
100
AcDbEntity
8
0
100
AcDbLine
10
-5.7392863103321679
20
4.9749998286366548
30
0
11
-5.7392863103321679
21
2.0249998286366733
31
0
0
LINE
5
145
100
AcDbEntity
8
0
100
AcDbLine
10
-5.7392863103321679
20
2.0249998286366733
30
0
11
-17.117857738903595
21
2.0249998286366733
31
0
0
ENDSEC
0
SECTION
2
OBJECTS
0
DICTIONARY
5
C
100
AcDbDictionary
3
ACAD_GROUP
350
D
3
ACAD_MLINESTYLE
350
17
0
DICTIONARY
5
D
100
AcDbDictionary
0
DICTIONARY
5
1A
330
C
100
AcDbDictionary
0
DICTIONARY
5
17
100
AcDbDictionary
0
ENDSEC
0
EOF
